<?xml version="1.0" encoding="UTF-8"?>
<svg width="32" height="32" version="1.1" viewBox="0 0 8.4666 8.4666" xmlns="http://www.w3.org/2000/svg" xmlns:cc="http://creativecommons.org/ns#" xmlns:dc="http://purl.org/dc/elements/1.1/" xmlns:rdf="http://www.w3.org/1999/02/22-rdf-syntax-ns#">
 <metadata>
  <rdf:RDF>
   <cc:Work rdf:about="">
    <dc:format>image/svg+xml</dc:format>
    <dc:type rdf:resource="http://purl.org/dc/dcmitype/StillImage"/>
    <dc:title/>
   </cc:Work>
  </rdf:RDF>
 </metadata>
 <rect x="1.0524" y="4.2429" width="6.3655" height="3.9036" fill="#ff0" stroke-linecap="round" stroke-width=".26458"/>
 <rect transform="scale(-1)" x="-8.1516" y="-4.2261" width="7.8175" height="1.9711" fill="#ff0" stroke-linecap="round" stroke-width=".26458"/>
 <path d="m1.0683 8.4223c-0.13185-0.05084-0.28472-0.19578-0.3533-0.33497l-0.05038-0.10224-0.0114-3.4251h-0.65322v-0.99766c0-1.0986 5e-3 -1.1521 0.12343-1.3243 0.07184-0.10442 0.15806-0.17452 0.28611-0.2326 0.08418-0.03818 0.13322-0.04151 0.61797-0.04192 0.2896-2.32e-4 0.52654-0.0039 0.52654-0.0081s-0.02338-0.04947-0.05195-0.10059c-0.29614-0.52985-0.23519-1.1425 0.15222-1.5299 0.17126-0.17126 0.33441-0.25379 0.5893-0.2981 0.48388-0.08411 0.92467 0.02787 1.3586 0.34514 0.22837 0.16698 0.46289 0.44187 0.58971 0.69123 0.04189 0.08237 0.04908 0.08797 0.06933 0.054 0.28392-0.47603 0.55079-0.74104 0.94703-0.94043 0.26012-0.13089 0.42392-0.16657 0.76254-0.16606 0.44847 6.64e-4 0.63215 0.06936 0.87824 0.32842 0.16462 0.1733 0.25543 0.34747 0.29847 0.57242 0.06088 0.31816 0.03099 0.53949-0.11394 0.84385-0.04469 0.09386-0.08126 0.17854-0.08126 0.18818 0 0.0096 0.23694 0.02025 0.52654 0.0236 0.50252 0.0058 0.53092 0.0082 0.62254 0.05337 0.12253 0.06035 0.24622 0.18404 0.30657 0.30657l0.04729 0.096 0.0056 1.0684 0.0056 1.0684h-0.65539v1.6935c0 1.909 0.0085 1.8028-0.15815 1.9881-0.05118 0.05692-0.14004 0.12829-0.19749 0.15859l-0.10444 0.0551-3.0877 0.0042c-3.0578 0.0041-3.0887 0.0038-3.1952-0.03728zm2.8578-2.2366v-1.6256h-2.5969v3.2512h2.5969zm3.2512 0v-1.6256h-2.5969v3.2512h2.5969zm-3.2512-2.9343v-0.65434h-3.2512v1.3087h3.2512zm3.9056 0v-0.65434h-3.2512v1.3087h3.2512zm-3.7938-1.3312c-0.04168-0.13131-0.35093-0.72316-0.43831-0.83883-0.24882-0.32939-0.67567-0.56998-1.0112-0.56998-0.28408 0-0.47484 0.06618-0.58247 0.20208-0.11617 0.14668-0.15322 0.25772-0.15429 0.46248-8.94e-4 0.17008 0.0046 0.19579 0.07276 0.33899 0.04055 0.08523 0.11227 0.22095 0.15938 0.30161l0.08565 0.14665h1.8822zm2.42-0.1668c0.18202-0.32856 0.21471-0.42844 0.20293-0.62003-0.02339-0.38039-0.22618-0.58598-0.60696-0.61535-0.20959-0.01616-0.37518 0.01668-0.59036 0.11709-0.36501 0.17033-0.57717 0.40373-0.81622 0.89792-0.08412 0.17391-0.16095 0.33724-0.17073 0.36295l-0.01778 0.04676h1.8942z" stroke-width=".020448"/>
</svg>
