<?xml version="1.0" encoding="UTF-8"?>
<svg width="100" height="100" version="1.1" viewBox="0 0 26.458 26.458" xmlns="http://www.w3.org/2000/svg" xmlns:cc="http://creativecommons.org/ns#" xmlns:dc="http://purl.org/dc/elements/1.1/" xmlns:rdf="http://www.w3.org/1999/02/22-rdf-syntax-ns#">
 <metadata>
  <rdf:RDF>
   <cc:Work rdf:about="">
    <dc:format>image/svg+xml</dc:format>
    <dc:type rdf:resource="http://purl.org/dc/dcmitype/StillImage"/>
    <dc:title/>
   </cc:Work>
  </rdf:RDF>
 </metadata>
 <g transform="matrix(.033007 .03256 -.032988 .032579 20.115 -.88855)" opacity=".39456">
  <path d="m138.3 35.768c-3.1077 2.834-5.1784 6.7895-5.5804 11.288l-9.8307 99.255c-0.46803 5.236-0.7052 10.547-0.7052 15.805l-5.3e-4 26.411c-4.96 0.82801-8.7548 5.1291-8.7548 10.32l7e-3 17.521-40.652 6e-3 -0.0048-8.3386c-4e-6 -10.846-8.8217-19.664-19.669-19.664l-16.646-3e-3c-10.846 0-19.683 8.8247-19.683 19.672l0.0047 8.3228-6.1553 0.0132c-14.589 0-26.458 11.87-26.458 26.459l0.0032 173.37c-1e-6 4.142 3.3538 7.4991 7.4948 7.4991l-7.01e-5 20.176c-4.142 0-7.4957 3.3494-7.4957 7.4914l-0.0092 65.392c-4e-6 14.589 11.877 26.465 26.466 26.465l173.9-3e-3c14.59-2e-5 26.458-11.87 26.458-26.459l-8.5e-4 -136.4 9.7178-5e-3c8.45 2e-5 15.328-6.8694 15.328-15.319l-3e-3 -64.841c-1e-5 -8.45-6.8716-15.332-15.323-15.332l-9.7178 5e-3 -3e-3 -42.048c-3e-5 -13.833-10.668-25.212-24.211-26.355l2.8e-4 -17.623c-3e-5 -5.191-3.7978-9.5023-8.7577-10.329l6.5e-4 -26.395c-2e-5 -5.261-0.23903-10.592-0.71407-15.894l-9.8169-99.145c-0.82998-9.046-8.3009-15.866-17.391-15.866-4.552 2.5e-5 -8.6939 1.7119-11.802 4.5459z"/>
 </g>
 <g transform="matrix(.033007 .03256 -.032988 .032579 13.949 -5.7211)">
  <path d="m211.18 192.65h-40.995v-15.829c0-6.722 5.449-12.172 12.172-12.172h16.652c6.722 0 12.172 5.449 12.172 12.172v15.829z" fill="#5a5a5a"/>
  <path d="m305.92 16.573c-0.459-5.137-4.764-9.074-9.922-9.074s-9.462 3.937-9.922 9.074l-9.822 99.183c-0.45 5.035-0.676 10.088-0.676 15.144v33.745h40.84v-33.745c0-5.055-0.225-10.108-0.676-15.144z" fill="#9c9c9c"/>
  <path d="m316.42 130.9v33.736h-13.218v-33.736c0-5.059-0.23-10.109-0.68-15.148l-9.819-99.179c-0.23-2.62-1.47-4.929-3.31-6.569 1.76-1.56 4.09-2.51 6.609-2.51 5.149 0 9.459 3.939 9.919 9.079l9.819 99.179c0.45 5.04 0.68 10.089 0.68 15.148z" fill="#838383"/>
  <path d="m325.18 192.65h-58.352v-25.017c0-1.648 1.336-2.984 2.984-2.984h52.384c1.648 0 2.984 1.336 2.984 2.984z" fill="#5a5a5a"/>
  <path d="m330.43 504.5h-173.91c-10.471 0-18.96-8.488-18.96-18.96v-273.94c0-10.471 8.488-18.96 18.96-18.96h173.91c10.471 0 18.96 8.488 18.96 18.96v273.94c0 10.471-8.488 18.96-18.959 18.96z" fill="#9c9c9c"/>
  <path d="m349.39 211.6v273.94c0 10.469-8.489 18.958-18.958 18.958h-16.968c10.469 0 18.958-8.489 18.958-18.958v-273.94c0-10.469-8.489-18.958-18.958-18.958h16.968c10.469 0 18.958 8.489 18.958 18.958z" fill="#838383"/>
  <path d="m366.61 341.65h-17.215v-80.495h17.215c4.322 0 7.825 3.504 7.825 7.825v64.845c0 4.321-3.504 7.825-7.825 7.825z" fill="#0593fc"/>
  <path d="m374.44 268.98v64.843c0 4.329-3.51 7.829-7.829 7.829h-12.519c4.32 0 7.829-3.5 7.829-7.829v-64.843c0-4.32-3.51-7.819-7.829-7.819h12.519c4.32 0 7.829 3.5 7.829 7.819z" fill="#0182fc"/>
  <path d="m221.4 392.34h-49.55c-4.059 0-7.35-3.291-7.35-7.35v-16.39c0-4.059 3.291-7.35 7.35-7.35h49.55c4.059 0 7.35 3.291 7.35 7.35v16.39c0 4.06-3.291 7.35-7.35 7.35z" fill="#5a5a5a"/>
  <path d="m318.27 392.34h-49.55c-4.059 0-7.35-3.291-7.35-7.35v-16.39c0-4.059 3.291-7.35 7.35-7.35h49.55c4.059 0 7.35 3.291 7.35 7.35v16.39c0 4.06-3.291 7.35-7.35 7.35z" fill="#5a5a5a"/>
  <path d="m228.75 368.6v16.388c0 4.06-3.3 7.349-7.349 7.349h-16.318c4.06 0 7.349-3.29 7.349-7.349v-16.388c0-4.059-3.29-7.349-7.349-7.349h16.318c4.049 0 7.349 3.29 7.349 7.349z" fill="#444"/>
  <path d="m325.62 368.6v16.388c0 4.06-3.3 7.349-7.359 7.349h-16.308c4.06 0 7.349-3.29 7.349-7.349v-16.388c0-4.059-3.29-7.349-7.349-7.349h16.308c4.059 0 7.359 3.29 7.359 7.349z" fill="#444"/>
  <path d="m318.27 338.02h-147.34c-4.059 0-7.35-3.291-7.35-7.35v-28.458c0-4.059 3.291-7.35 7.35-7.35h147.34c4.059 0 7.35 3.291 7.35 7.35v28.458c0 4.059-3.29 7.35-7.35 7.35z" fill="#8ac9fe"/>
  <path d="m325.62 302.22v28.457c0 4.06-3.3 7.349-7.359 7.349h-147.33c-4.06 0-7.349-3.29-7.349-7.349v-7.319h138.83c4.06 0 7.359-3.289 7.359-7.349v-21.137h8.489c4.06-1e-3 7.359 3.288 7.359 7.348z" fill="#60b7ff"/>
  <g fill="#fac600">
   <path d="m289.49 271.5h16.205c2.842 0 5.146-2.304 5.146-5.146v-16.205c0-2.842-2.304-5.146-5.146-5.146h-21.352v21.352c1e-3 2.841 2.305 5.145 5.147 5.145z"/>
   <path d="m236.49 271.5h16.206c2.842 0 5.146-2.304 5.146-5.146v-21.352h-26.498v21.352c0 2.842 2.304 5.146 5.146 5.146z"/>
   <path d="m183.5 271.5h16.205c2.842 0 5.146-2.304 5.146-5.146v-21.352h-21.352c-2.842 0-5.146 2.304-5.146 5.146v16.205c1e-3 2.843 2.305 5.147 5.147 5.147z"/>
   <path d="m257.85 245h26.498v-21.352c0-2.842-2.304-5.146-5.146-5.146h-16.205c-2.842 0-5.146 2.304-5.146 5.146v21.352z"/>
   <path d="m204.85 245h26.498v-21.352c0-2.842-2.304-5.146-5.146-5.146h-16.205c-2.842 0-5.146 2.304-5.146 5.146v21.352z"/>
  </g>
  <path d="m163.58 424.98h162.04c4.142 0 7.499-3.357 7.499-7.499s-3.358-7.499-7.499-7.499h-162.04c-4.142 0-7.499 3.357-7.499 7.499s3.357 7.499 7.499 7.499z"/>
  <path d="m163.58 452.56h162.04c4.142 0 7.499-3.357 7.499-7.499s-3.358-7.499-7.499-7.499h-162.04c-4.142 0-7.499 3.357-7.499 7.499s3.357 7.499 7.499 7.499z"/>
  <path d="m163.58 480.14h162.04c4.142 0 7.499-3.357 7.499-7.499s-3.358-7.499-7.499-7.499h-162.04c-4.142 0-7.499 3.357-7.499 7.499s3.357 7.499 7.499 7.499z"/>
  <path d="m171.85 353.75c-8.188 0-14.849 6.661-14.849 14.849v16.39c0 8.188 6.661 14.849 14.849 14.849h49.55c8.188 0 14.849-6.661 14.849-14.849v-16.39c0-8.188-6.661-14.849-14.849-14.849zm49.401 31.089h-49.252v-16.091h49.252z"/>
  <path d="m318.27 353.75h-49.55c-8.188 0-14.849 6.661-14.849 14.849v16.39c0 8.188 6.661 14.849 14.849 14.849h49.55c8.188 0 14.849-6.661 14.849-14.849v-16.39c0-8.188-6.661-14.849-14.849-14.849zm-0.149 31.089h-49.252v-16.091h49.252z"/>
  <path d="m156.08 302.21v28.458c0 8.188 6.661 14.849 14.849 14.849h147.34c8.188 0 14.849-6.661 14.849-14.849v-28.458c0-8.188-6.661-14.85-14.849-14.85h-15.36c-4.142 0-7.499 3.357-7.499 7.499s3.358 7.499 7.499 7.499h15.211v28.16h-147.04v-28.16h96.923c4.142 0 7.499-3.357 7.499-7.499s-3.358-7.499-7.499-7.499h-97.072c-8.188 1e-3 -14.849 6.662-14.849 14.85z"/>
  <path d="m226.2 211.01h-16.205c-6.973 0-12.646 5.672-12.646 12.645v13.853h-13.852c-6.973 0-12.646 5.672-12.646 12.645v16.205c0 6.973 5.673 12.645 12.646 12.645h16.205c6.973 0 12.646-5.672 12.646-12.645v-13.852h11.5v13.852c0 6.973 5.673 12.645 12.645 12.645h16.205c6.973 0 12.646-5.672 12.646-12.645v-13.852h11.499v13.852c0 6.973 5.673 12.645 12.646 12.645h16.205c6.973 0 12.646-5.672 12.646-12.645v-16.205c0-6.973-5.673-12.645-12.646-12.645h-13.852v-13.853c0-6.973-5.673-12.645-12.645-12.645h-16.206c-6.972 0-12.645 5.672-12.645 12.645v13.853h-11.5v-13.853c-1e-3 -6.973-5.674-12.645-12.646-12.645zm-28.851 52.995h-11.5v-11.499h11.5zm26.498-26.497h-11.5v-11.5h11.5zm67.994 14.998h11.5v11.499h-11.5zm-26.498-26.498h11.499v11.5h-11.499zm-14.998 26.498v11.499h-11.5v-11.499z"/>
  <path d="m366.61 253.66h-9.715v-42.051c0-13.833-10.673-25.214-24.216-26.357v-17.619c0-5.191-3.796-9.501-8.756-10.328v-26.401c0-5.261-0.237-10.581-0.712-15.883l-9.819-99.153c-0.83-9.046-8.298-15.864-17.388-15.864-9.104 0-16.581 6.838-17.385 15.834l-9.828 99.253c-0.468 5.236-0.706 10.555-0.706 15.813v26.401c-4.96 0.828-8.756 5.137-8.756 10.328v17.518h-40.648v-8.33c0-10.846-8.824-19.671-19.671-19.671h-16.652c-10.846 0-19.671 8.824-19.671 19.671v8.33h-6.157c-14.589 0-26.458 11.87-26.458 26.459v173.38c0 4.142 3.358 7.499 7.499 7.499 4.142 0 7.499-3.357 7.499-7.499v-173.38c0-6.32 5.141-11.461 11.46-11.461h173.91c6.32 0 11.461 5.141 11.461 11.461v273.94c0 6.32-5.141 11.461-11.461 11.461h-173.91c-6.319 0-11.46-5.141-11.46-11.461v-65.393c0-4.142-3.357-7.499-7.499-7.499s-7.499 3.357-7.499 7.499v65.393c0 14.589 11.869 26.459 26.458 26.459h173.91c14.59 0 26.459-11.87 26.459-26.459v-136.39h9.715c8.45 0 15.325-6.874 15.325-15.324v-64.844c0-8.45-6.874-15.325-15.325-15.325zm-188.92-76.839c0-2.576 2.096-4.672 4.672-4.672h16.652c2.576 0 4.672 2.096 4.672 4.672v8.33h-25.997v-8.33zm105.4-45.917c0-4.813 0.217-9.682 0.64-14.405l9.828-99.254c0.114-1.278 1.169-2.243 2.453-2.243s2.338 0.965 2.452 2.243c2e-3 0.023 4e-3 0.048 7e-3 0.071l9.815 99.113c0.429 4.789 0.646 9.659 0.646 14.475v26.246h-25.841zm34.598 54.247h-43.354v-13.002h43.354zm49.256 148.68c0 0.179-0.146 0.326-0.327 0.326h-9.715v-65.496h9.715c0.18 0 0.327 0.146 0.327 0.326z"/>
 </g>
</svg>
