<?xml version="1.0" encoding="UTF-8"?>
<svg width="320" height="640" version="1.1" viewBox="0 0 84.667 169.33" xmlns="http://www.w3.org/2000/svg" xmlns:cc="http://creativecommons.org/ns#" xmlns:dc="http://purl.org/dc/elements/1.1/" xmlns:rdf="http://www.w3.org/1999/02/22-rdf-syntax-ns#">
 <metadata>
  <rdf:RDF>
   <cc:Work rdf:about="">
    <dc:format>image/svg+xml</dc:format>
    <dc:type rdf:resource="http://purl.org/dc/dcmitype/StillImage"/>
    <dc:title/>
   </cc:Work>
  </rdf:RDF>
 </metadata>
 <rect x="4.2333" y="4.2333" width="76.2" height="165.1" stroke-linecap="round" stroke-width=".24785"/>
 <path transform="scale(.26458)" d="m171.77 123.1c-1.1819-0.03898-2.4151 1.2673-4.3613 3.6758-2.1102 2.6114-4.7112 4.8045-8.9316 7.5352-9.698 6.2747-17.335 12.685-19.891 16.691-1.0442 1.6373-2.2554 4.9149-2.9961 8.1074-1.1276 4.8606-1.1839 5.9943-0.60546 12.205 1.4887 15.985 1.5068 15.562-1.0762 23.52-1.2083 3.7223-1.062 5.8591 0.54688 8.0352 1.0164 1.3748 1.2017 2.2835 0.9668 4.7285-0.16739 1.742-0.75081 3.5349-1.375 4.2246-0.99254 1.0968-1.5414 1.1632-6.4707 0.79102-5.2227-0.39427-5.5075-0.49262-9.4238-3.2871-2.2212-1.585-4.2634-2.8828-4.5371-2.8828-0.27374 0-0.7939-0.65007-1.1562-1.4453-0.42235-0.92696-1.2522-1.5138-2.3125-1.6367-1.364-0.15795-1.7698-0.60992-2.3125-2.5742-0.47058-1.7032-1.1676-2.6348-2.4473-3.2734-0.98421-0.49122-3.1448-1.9017-4.8027-3.1328-3.2644-2.424-8.2553-4.8056-11.295-5.3906-2.6538-0.51077-14.578 0.60994-17.289 1.625-1.2319 0.46123-3.1274 0.99327-4.2109 1.1816-1.0836 0.18831-3.4956 1.5097-5.3594 2.9375-10.204 7.8171-17.651 10.015-26.609 7.8516-5.0544-1.2204-5.2605-1.191-4.7871 0.69532 0.55348 2.2052 2.2652 4.5711 6.6426 9.1738 2.1602 2.2714 4.3404 5.2956 5.1719 7.1758 1.8144 4.1028 4.6057 7.297 8.6211 9.8672 3.5344 2.2624 6.6797 6.1798 6.6797 8.3164-1e-6 1.315 1.6792 3.4445 6.8477 8.6894 2.1451 2.1769 8.9186 5.4013 13.268 6.3145 1.7305 0.36337 5.3938 0.83188 8.1406 1.043 4.3571 0.33493 5.2976 0.2271 7.3633-0.84961 3.0673-1.5987 8.1598-3.1016 10.508-3.1016 2.9209 0 6.9055 2.3791 8.9707 5.3574 1.0219 1.4737 2.4694 2.9875 3.2168 3.3633 1.3043 0.65571 1.3116 0.69931 0.17969 1.0586-0.64865 0.20587-2.2702 1.572-3.6035 3.0371-1.3334 1.4651-2.7081 2.6641-3.0547 2.6641-0.34658 0-0.64101 0.73616-0.65235 1.6367-0.01456 1.0846-1.2227 3.1455-3.5801 6.1035-1.9574 2.4561-4.513 5.7303-5.6777 7.2754-1.6364 2.1706-2.6139 2.8983-4.3066 3.2031-1.2049 0.21692-2.5009 0.63865-2.8789 0.9375-0.37802 0.29885-1.3824 0.36961-2.2324 0.15625-1.1839-0.29714-1.5449-0.16525-1.5449 0.56836 0 0.52672-0.26821 0.95899-0.5957 0.95899-0.32746 0-0.5957-0.40332-0.5957-0.89454 0-1.2775-1.359-1.1016-3.3008 0.42578-1.1405 0.89709-1.7519 1.0875-1.916 0.59571-0.36463-1.0938-1.3298-0.86564-1.3457 0.31836-0.007113 0.57556-0.85389 1.4422-1.8906 1.9355-1.2025 0.57223-2.5279 2.0656-3.6914 4.1543-1.596 2.8652-1.8433 3.9452-2.0371 8.9297-0.2046 5.2631-0.065959 6.1171 1.9199 11.867 2.4742 7.1639 2.5227 7.5575 1.0098 7.9531-1.1469 0.29993-2.6308 2.9802-3.291 5.9434-0.2691 1.2077-0.049981 1.9039 0.83789 2.6641 1.671 1.4307 1.5256 1.9997-1.0312 4.0391-6.1175 4.8792-16.96 16.239-19.299 20.221-4.426 7.5333-6.4197 10.392-7.9375 11.387-0.82164 0.53835-1.4922 1.3997-1.4922 1.9141 0 1.1704-2.3171 3.6914-3.3926 3.6914-0.4415 0-2.069 1.305-3.6172 2.9004-1.9155 1.9739-7.597 5.7787-17.779 11.908-1.2806 0.77087-2.4566 1.4624-3.666 2.1777v39.582c1.0956-0.44646 2.1695-0.89455 3.1074-1.3106 9.8018-4.3475 12.654-5.2441 16.676-5.2441 3.2702 0 4.4977-0.35576 9.1309-2.6445 2.9442-1.4545 7.8157-3.5034 10.826-4.5547l5.4746-1.9121 5.9414-6.752c3.2674-3.714 6.5283-7.0746 7.248-7.4668 2.0567-1.1207 7.6095-0.70569 11.504 0.85938 4.1512 1.6683 5.6106 3.5297 6.9707 8.8945 0.5232 2.0637 1.497 4.814 2.1641 6.1113 0.93967 1.8274 1.2123 3.5047 1.2168 7.4434 0.006368 6.3423 1.0146 17.978 1.832 21.152 2.0842 8.0943 5.9934 14.57 10.068 16.678 1.2563 0.64963 1.9018 1.6958 2.7148 4.4102 0.66483 2.2194 2.1469 4.9573 3.9394 7.2734 2.1128 2.7298 2.875 4.2388 2.875 5.6914 0 1.0872-0.21527 1.9766-0.47851 1.9766-0.26323 0-1.3871-0.9378-2.498-2.084s-2.3032-2.084-2.6504-2.084c-0.70831 0-2.1075 4.0222-2.1211 6.0938-0.01375 2.2804-0.68621 4.0293-1.5488 4.0293-1.4012 0-5.6116 4.253-7.0371 7.1074-1.3387 2.6807-1.3528 2.9491-1.0977 19.984 0.14225 9.4969 0.50458 17.521 0.80664 17.832 0.84854 0.87398 0.6895 1.3175-1.2852 3.5664-1.7968 2.0464-1.8359 2.2175-1.7891 8.0176 0.026332 3.2591 0.31624 6.6327 0.64453 7.4961 1.0064 2.647 0.72732 6.3385-0.58594 7.7363-2.0961 2.2312-9.5353 32.4-13.656 55.381-1.4213 7.9264-3.214 20.524-4.0762 28.371h56.031l0.38476-1.1309c4.8019-14.153 12.18-34.149 14.035-38.035 2.2183-4.6469 5.434-7.9609 7.7226-7.9609 0.91463 0 2.6669 1.0916 4.6836 2.918 1.7724 1.6051 3.7646 3.0903 4.4277 3.3008 1.8603 0.59043 5.0302-1.0506 6.6641-3.4492 1.6437-2.413 3.5606-2.9157 3.5606-0.9336 0 0.68308-0.46028 2.9724-1.0234 5.0859-1.2309 4.6194-0.76184 5.7935 2.4238 6.0645 1.4069 0.11969 2.1719 0.48652 2.1719 1.041 0 1.4849 8.882 27.756 11.172 33.1h56.619l-0.31054-2.6191c-2.7624-23.383-6.0305-43.299-9.4199-57.389-2.3077-9.5932-4.3604-15.068-6.7793-18.078-2.5772-3.2078-3.7966-5.9321-3.4356-7.6738 0.17772-0.85723 0.8805-3.5674 1.5625-6.0234 0.682-2.4561 1.4064-7.012 1.6094-10.123 0.20296-3.111 0.73007-6.6936 1.1719-7.9629 0.4418-1.2692 0.80273-4.6526 0.80273-7.5176 0-3.1082 0.3616-6.2298 0.89454-7.7402 1.1886-3.367 1.1988-13.003 0.01757-15.83-0.4818-1.1531-2.8931-4.4854-5.3574-7.4062-3.1265-3.7057-4.6981-6.1249-5.2012-8.0059-0.78071-2.919-1.2891-3.1909-3.3184-1.7695-1.0873 0.76161-1.3242 0.77904-1.3242 0.0957 0-1.5379 2.3328-9.9673 3.4688-12.535 2.5494-5.7633 9.0352-12.245 9.0352-9.0293 0 2.0991 1.1746 0.48467 4.1856-5.75l3.209-6.6426 0.24414-9.0859c0.27894-10.382-0.59314-15.785-3.5879-22.221-2.0722-4.453-2.0528-7.3327 0.08789-12.568 0.73639-1.8012 1.4772-3.8765 1.6465-4.6133 0.43001-1.8724 2.7295-1.7675 4.0078 0.18359 0.54923 0.83823 1.2342 2.9155 1.5215 4.6152 0.74914 4.4326 5.2937 17.012 8.291 22.949 0.97257 1.9266 3.6196 7.6249 5.8828 12.662 3.7274 8.2961 9.2027 18.201 12.1 21.891 0.69188 0.8812 1.1152 2.3794 1.1152 3.9492 0 1.963 0.24636 2.5942 1.1035 2.8184 0.80233 0.20984 1.1856 1.013 1.4023 2.9355 0.41153 3.6511 1.677 6.0281 3.4277 6.4395 1.2238 0.28751 1.5786 0.88705 2.1309 3.5976 0.77116 3.785 2.5166 7.3787 5.623 11.574 2.9586 3.9958 5.7929 6.517 16.381 14.576 0.8456 0.64364 1.7352 1.3396 2.623 2.0215v-51.307c-5.2606-4.7936-6.4523-6.2259-6.2832-7.1875 0.16819-0.95656-0.38577-2.257-1.6953-3.9727-4.7915-6.2772-7.8098-13.77-11.613-28.836-1.9884-7.8761-4.195-14.359-6.3281-18.594-2.3312-4.6277-3.0544-7.5871-3.4609-14.16-0.21264-3.4385-1.0377-9.5999-1.834-13.693-0.79628-4.0935-1.7387-9.0508-2.0938-11.016-0.85726-4.744-3.7053-10.79-6.375-13.535-1.1886-1.222-2.0428-2.3009-1.9004-2.3984 1.3968-0.95689 5.1187-2.2266 6.5293-2.2266 1.2976 0 1.7586-0.2774 1.7344-1.043-0.04231-1.3382-3.6506-4.2827-3.9922-3.2578-0.63317 1.8996-3.2388-0.17866-5.0586-4.0352-0.74682-1.5826-1.0558-4.5199-1.2832-12.207-0.31485-10.643-1.2452-16.458-3.2656-20.418-0.66889-1.3112-1.7583-4.3417-2.4219-6.7363-0.96861-3.4954-1.7233-4.8884-3.8262-7.0586-1.4407-1.4867-2.8019-3.313-3.0254-4.0586-0.87371-2.9162-5.1792-3.8194-5.9922-1.2578-0.44679 1.4078-1.2208 1.4394-2.0332 0.08399-0.59483-0.99236-0.66378-0.99236-1.4356 0-1.138 1.4633-2.0802 1.2954-2.5176-0.44727-0.20546-0.81871-0.73282-1.4883-1.1719-1.4883-1.3788 0-3.6179-3.6207-6.8106-11.016-3.2908-7.6223-3.3307-7.7022-4.9004-9.9102-2.0291-2.8542-1.683-3.5687 4.0176-8.3281 4.6154-3.8534 5.7876-4.5432 8.3223-4.8906 6.4629-0.88582 9.7988-2.2401 13.225-5.3711 1.8104-1.6546 3.9377-3.958 4.7266-5.1172 0.78887-1.1592 2.1032-3.0295 2.9219-4.1562 0.81863-1.1267 1.6484-2.7341 1.8438-3.5723 1.052-4.5124 6.1987-14.905 10.387-20.975 0.60304-0.87396 1.6202-3.5543 2.2598-5.9551 0.63954-2.4008 2.0014-7.3118 3.0273-10.914 3.0912-10.854 3.2876-12.062 2.3535-14.512-0.53989-1.4161-0.83475-4.8257-0.85742-9.9004-0.0318-7.239-0.14009-7.9438-1.6621-10.867-0.89512-1.7193-1.9891-3.125-2.4316-3.125-0.47798 0-1.2246 1.4986-1.8398 3.6914-1.0719 3.8202-3.628 7.0254-5.6016 7.0254-0.54745 0-1.6063 0.42785-2.3535 0.95117-0.84315 0.59057-3.4762 1.1328-6.9414 1.4297-3.0708 0.26309-5.8757 0.66033-6.2324 0.88086-0.35674 0.22047-4.0576 0.77075-8.2246 1.2246-7.5859 0.82621-16.105 2.8568-19.516 4.6504-0.99928 0.52549-2.4534 1.6318-3.2305 2.459-0.88591 0.94301-2.0611 1.5039-3.1523 1.5039-1.351 0-2.3609 0.69836-4.5098 3.125-1.5225 1.7193-3.4959 3.8295-4.3867 4.6875-0.92369 0.88967-1.8705 2.6807-2.2031 4.168-0.86916 3.886-1.3502 12.634-0.7793 14.178 0.44979 1.2159-0.09482 8.8019-0.67383 9.3809-0.13009 0.1301-1.2078 0.3933-2.3945 0.58594-1.9851 0.32215-2.1582 0.23599-2.1582-1.0976 0-0.86956-0.81739-2.2438-2.043-3.4316-1.7189-1.666-2.1572-2.6521-2.7598-6.2188-0.83973-4.9707-0.45568-14.544 0.93555-23.293 1.4565-9.1593 0.20095-25.067-2.3711-30.041-0.46259-0.8945-3.1086-4.3287-5.8809-7.6309-2.7723-3.3021-6.0492-7.8316-7.2812-10.066-2.7579-5.0023-4.1914-7.2741-5.7109-7.3242z" fill="#333" stroke-width=".59542"/>
 <path transform="scale(.26458)" d="m0 0v640h16v-624h288v624h16v-640h-320z" fill="#94572c" stroke-linecap="round"/>
</svg>
