<?xml version="1.0" encoding="UTF-8"?>
<svg width="512" height="512" enable-background="new 0 0 256 256" version="1.1" viewBox="0 0 256 256" xmlns="http://www.w3.org/2000/svg" xmlns:cc="http://creativecommons.org/ns#" xmlns:dc="http://purl.org/dc/elements/1.1/" xmlns:rdf="http://www.w3.org/1999/02/22-rdf-syntax-ns#">
 <metadata>
  <rdf:RDF>
   <cc:Work rdf:about="">
    <dc:format>image/svg+xml</dc:format>
    <dc:type rdf:resource="http://purl.org/dc/dcmitype/StillImage"/>
    <dc:title/>
   </cc:Work>
  </rdf:RDF>
 </metadata>
 <ellipse cx="141.12" cy="148.49" rx="63.702" ry="12.86" fill-opacity=".2" stroke-linecap="round" stroke-width=".45086"/>
 <path d="m48.92 56.933c-15.156 15.156-23.769 5.2342-27.88 25.297-0.55911 2.7264-1.7153 5.3128-3.4782 7.4672-2.8085 3.4316-6.2807 9.3579-2.1872 14.337l-0.11148 0.26702c-4.7321 9.4634 7.061 16.384 13.015 17.978 2.0359 0.54441 4.0572 1.1597 5.9704 2.0437 13.837 6.393 26.628 4.9818 36.576 4.3519 11.526-0.73022 20.477-10.332 20.477-21.881v-48.066c0-8.5715-7.5786-15.187-16.065-13.975-8.3918 1.1969-18.511 4.3752-26.317 12.18z" fill="#7ccc4e" stroke-width=".86415"/>
 <path d="m161.45 44.532c-40.694-1.565-61.889 13.977-70.143 22.132v40.129c0 4.3147-1.2513 8.3564-3.4169 11.766 1.1848 3.7617 4.0771 7.8569 11.069 7.8569h21.623c0.32146-0.36381 0.65071-0.72502 1.0033-1.0776 0 0-15.084-5.3871-18.317-12.929-3.2328-7.5423 7.5423-15.084 14.006-8.6191 6.4647 6.4647 20.471 10.774 17.239 20.471 0 0-0.65329 0.8175-1.5978 2.1552h37.465c-4.2231-10.467-6.6825-23.682 5.0743-28.013 20.471-7.5423 34.478 19.394 34.478 19.394s3.2319 6.4647-2.6469 11.386c-2.6408 2.2105-6.4483 2.3738-9.6509 1.1044-4.2041-1.667-10.061-4.8764-12.732-10.394 0.78638 2.061 2.0048 5.4424 3.0859 9.243 10.773 4.7503 18.481 15.255 19.017 27.72 0.44245 10.276-1.8225 22.427-10.003 35.283-18.284 28.731-47.846 26.723-58.2 22.582-8.6415-3.4566-15.066-9.453-15.066-18.71 0-11.852 10.774-19.394 19.394-19.394 6.4647 0 12.323 4.2421 16.666 9.5454 1.1476 1.4008 3.4091 0.24801 2.9874-1.5131-1.7888-7.4844-7.4222-18.061-25.041-16.651-33.294 2.6633-39.865 61.414 12.929 61.414s79.732-52.356 79.732-90.066-12.929-92.66-68.956-94.814z" fill="#7ccc4e" stroke-width=".86415"/>
 <g transform="matrix(.86415 0 0 .86415 11.338 10.35)" fill="#3aa03a">
  <path d="m42.446 54.911c11.048-1.806 36.218-3.055 50.089 19.092v-18.02c0-9.919-8.77-17.574-18.59-16.172-9.713 1.385-21.423 5.064-30.455 14.096-0.353 0.352-0.697 0.674-1.044 1.004z"/>
  <circle cx="53.707" cy="85.74" r="19.334"/>
  <path d="m173.7 56.847c62.554 2.189 78.679 56.137 79.736 95.599 0.036-1.066 0.059-2.126 0.059-3.171 0-43.638-14.962-107.22-79.796-109.72-47.091-1.811-71.618 16.174-81.17 25.611v14.988c9.554-8.589 34.081-24.957 81.171-23.308z"/>
  <path d="m229.81 124.34s3.74 7.481-3.063 13.176c-3.056 2.559-7.462 2.747-11.168 1.278-5.453-2.162-13.324-6.557-15.693-14.454 0 0 7.204 17.178 7.204 28.63 0 5.944-6.088 10.05-11.637 7.92-4.524-1.736-11.8-3.416-18.415-0.022-2.621 1.345-5.83 0.038-6.864-2.72-0.919-2.449 0.199-5.201 2.58-6.282 3.951-1.794 10.681-3.586 19.652-1.343 0 0-26.183-39.898-2.494-48.625s39.898 22.442 39.898 22.442z"/>
  <path d="m122.58 108.13c-7.481-7.481-19.949 1.247-16.208 9.974s21.196 14.962 21.196 14.962c-7.481 7.481-8.728 17.455-8.728 17.455-8.773-2.193-15.402-0.528-19.386 1.224-2.226 0.98-3.591 3.376-3.044 5.746 0.738 3.199 4.241 4.823 7.062 3.376 8.049-4.131 16.011-0.609 19.199 0.281 4.944 1.376 9.79-2.611 9.878-7.742l7e-3 -0.391c0-8.728 9.974-21.196 9.974-21.196 3.74-11.221-12.469-16.208-19.95-23.689z"/>
 </g>
 <g stroke-width=".86415">
  <path d="m45.181 112.7h-11.946c-4.6042 0-8.8939-0.85291-12.749-2.5354-2.9718-1.2962-5.2532-2.8958-6.7802-4.752-0.757-0.92206-0.62478-2.284 0.29727-3.0418 0.92205-0.75614 2.2822-0.62392 3.0418 0.29727 1.0888 1.3248 2.8275 2.5147 5.1694 3.537 3.3063 1.4423 7.0143 2.1742 11.021 2.1742h11.946c1.1934 0 2.1604 0.96699 2.1604 2.1604 0 1.1934-0.96699 2.1604-2.1604 2.1604z"/>
  <path d="m58.414 131.42c-7.595 0-16.084-0.9886-25.072-5.14-1.8709-0.86416-3.8921-1.4552-5.6222-1.9184-4.4288-1.1848-11.999-5.1253-14.699-11.126-1.2988-2.8863-1.3377-5.9592-0.12444-8.9457-2.8534-4.4729-1.8182-10.086 2.9943-15.966 1.4794-1.8069 2.5276-4.0658 3.0332-6.5321 2.5112-12.255 6.7888-14.453 13.559-17.022 4.1851-1.5883 8.9293-3.3892 14.909-9.3692 6.8597-6.8588 16.126-11.162 27.541-12.79 4.6535-0.66453 9.3588 0.7233 12.914 3.8075 3.569 3.0954 5.6161 7.5804 5.6161 12.306v48.066c0 12.68-9.8842 23.239-22.501 24.037l-2.1059 0.13913c-3.2363 0.21949-6.7335 0.45455-10.442 0.45455zm18.808-84.653c-0.55824 0-1.1191 0.03975-1.6782 0.11925-10.468 1.4941-18.912 5.3863-25.096 11.57-6.635 6.6358-12.067 8.6968-16.431 10.353-5.6084 2.1293-8.6986 3.3011-10.86 13.85-0.64552 3.149-2.0014 6.0534-3.9224 8.4013-2.6685 3.2605-5.2143 7.9191-2.1906 11.597 0.50899 0.61874 0.63342 1.4665 0.32492 2.2053l-0.11148 0.26703c-0.01814 0.0449-0.03889 0.0899-0.06049 0.13308-1.0716 2.1422-1.1485 4.1704-0.23505 6.1994 1.9582 4.351 8.123 7.7221 11.875 8.7254 1.9081 0.51071 4.1505 1.1683 6.3187 2.1699 12.374 5.7164 24.039 4.9283 33.411 4.2983 0.7207-0.0492 1.4284-0.0968 2.1232-0.14085 10.348-0.65503 18.453-9.3199 18.453-19.725v-48.068c0-3.4722-1.5036-6.7672-4.1263-9.0425-2.1811-1.8908-4.9516-2.9131-7.7947-2.9131z"/>
  <path d="m27.106 100.85h-1.2461c-1.1934 0-2.1604-0.96699-2.1604-2.1604s0.96699-2.1604 2.1604-2.1604h1.2461c1.1934 0 2.1604 0.96699 2.1604 2.1604s-0.96699 2.1604-2.1604 2.1604z"/>
  <path d="m91.303 76.46c-0.73021 0-1.4284-0.37159-1.8311-1.0137-11.4-18.203-32.544-16.911-41.104-15.513-0.92983 0.15296-1.8605-0.3206-2.2831-1.1701-0.42257-0.84946-0.24196-1.8735 0.44504-2.5268l0.18838-0.17888c0.22382-0.21258 0.4485-0.4243 0.67577-0.65244 6.8605-6.8605 16.127-11.165 27.541-12.792 4.6509-0.66626 9.3571 0.7233 12.912 3.8057 3.5698 3.0963 5.617 7.5821 5.617 12.307v15.573c0 0.96353-0.63775 1.8104-1.5641 2.0757-0.19703 0.05876-0.39751 0.08556-0.59627 0.08556zm-33.931-21.579c9.6319 0 22.385 2.3902 31.771 12.931v-9.0857c0-3.4722-1.5036-6.7681-4.1263-9.0434-2.6097-2.2624-6.062-3.2769-9.472-2.7929-8.3235 1.1865-15.367 3.8913-21.013 8.0591 0.90823-0.04321 1.8579-0.06826 2.8396-0.06826z"/>
  <path d="m51.638 86.814c-1.1899 0-2.1561-0.96267-2.1604-2.1535-0.0069-2.2096 0.84601-4.2897 2.4041-5.8564 1.5572-1.5676 3.632-2.4343 5.8417-2.4412h0.02765c4.5489 0 8.2561 3.6925 8.2708 8.2458 0.0044 1.1934-0.96008 2.163-2.1535 2.1673h-0.0069c-1.1899 0-2.1561-0.96267-2.1604-2.1535-0.0069-2.1742-1.7784-3.9388-3.9509-3.9388h-0.01383c-1.056 0.0034-2.0463 0.41652-2.7904 1.1666-0.74404 0.74836-1.1519 1.7421-1.1485 2.7973 0.0044 1.1934-0.96008 2.163-2.1535 2.1673-8.64e-4 -8.64e-4 -0.0034-8.64e-4 -6e-3 -8.64e-4z"/>
  <path d="m57.749 103.31c-10.404 0-18.867-8.4644-18.867-18.868 0-10.404 8.4635-18.867 18.867-18.867 10.404 0 18.868 8.4635 18.868 18.867 0 10.404-8.4644 18.868-18.868 18.868zm0-33.414c-8.0211 0-14.546 6.5252-14.546 14.546 0 8.0211 6.5252 14.547 14.546 14.547s14.547-6.5261 14.547-14.547c0-8.0211-6.5261-14.546-14.547-14.546z"/>
  <path d="m230.35 144.25h-7e-3c-1.1683-4e-3 -2.1206-0.93502-2.1517-2.1025-1.8913-70.622-47.36-79.83-66.821-80.511-39.224-1.3645-59.829 11.684-68.622 19.59-0.63515 0.57121-1.5468 0.71206-2.3237 0.3664-0.7786-0.34653-1.2807-1.1199-1.2807-1.9729v-12.951c0-0.57725 0.23159-1.1312 0.64207-1.5365 9.2819-9.1704 30.954-24.315 71.743-22.754 25.796 0.99118 45.073 12.834 57.301 35.196 11.949 21.853 13.732 48.085 13.732 61.776 0 0.92724-0.0199 1.8674-0.0527 2.8137-0.0389 1.164-0.99464 2.0869-2.1595 2.0869zm-68.828-86.93c24.946 0.8728 43.83 11.04 56.123 30.22 1.2781 1.9936 2.449 4.027 3.5223 6.0923-1.6445-4.7554-3.6623-9.4729-6.1294-13.985-11.447-20.936-29.507-32.023-53.675-32.952-38.255-1.476-58.774 12.162-67.899 20.887v7.4438c10.777-8.2579 31.891-18.965 68.058-17.706z"/>
  <path d="m182.87 152.03c-1.1502 0-2.3047-0.2074-3.4056-0.62996-3.753-1.4406-9.256-2.6296-14.154-0.11408-1.6065 0.82354-3.5033 0.91946-5.2005 0.2653-1.7274-0.66799-3.0911-2.0454-3.7409-3.779-1.1899-3.1775 0.28604-6.7585 3.3598-8.1559 3.041-1.3809 7.6529-2.6962 13.6-2.1241-3.9993-7.1146-11.084-21.864-7.7221-32.059 1.4215-4.3095 4.4815-7.3583 9.0952-9.0572 22.007-8.1075 36.993 20.138 37.14 20.425 6e-3 0.0104 0.0112 0.0199 0.0164 0.0303 1.3818 2.7636 2.4931 9.249-3.1922 14.009-3.0738 2.5734-7.6098 3.1291-11.833 1.457-2.1241-0.84255-4.4746-1.9789-6.6912-3.486 1.2548 4.4668 2.3116 9.4876 2.3116 13.728 0 3.1032-1.5434 6.0162-4.1281 7.7938-1.6332 1.12-3.5396 1.6972-5.4563 1.6972zm-11.213-6.533c3.5007 0 6.7776 0.88057 9.3545 1.8692 1.6332 0.62738 3.4048 0.40875 4.8669-0.5954 1.4328-0.98514 2.2546-2.5276 2.2546-4.2318 0-7.1232-3.4868-17.2-5.1694-21.648-0.3785-0.78119-0.70342-1.6039-0.96353-2.4723-0.33011-1.1001 0.25924-2.2658 1.3403-2.6538 1.0819-0.38714 2.277 0.13826 2.7212 1.1986 0.0562 0.13568 0.39233 0.94279 0.88317 2.2269 2.3522 4.6345 7.4024 7.4732 11.481 9.0909 2.7065 1.0742 5.6386 0.77774 7.468-0.75267 4.434-3.7124 2.2857-8.384 2.1085-8.747-0.4027-0.75527-13.567-25.072-31.807-18.349-3.3633 1.2392-5.4848 3.3183-6.4863 6.3567-1.5512 4.7036-0.40011 11.759 3.3287 20.405 2.9036 6.7344 6.3377 11.993 6.3714 12.045 0.48825 0.74404 0.47096 1.711-0.045 2.4361-0.51504 0.72502-1.4224 1.0586-2.2857 0.846-7.0869-1.7732-12.376-0.41652-15.564 1.0309-1.0136 0.45972-1.4967 1.6479-1.1009 2.7048 0.21776 0.57985 0.6749 1.0413 1.2539 1.2651 0.55825 0.21604 1.1493 0.18666 1.6687-0.0795 2.761-1.4164 5.6084-1.9452 8.321-1.9452z"/>
  <path d="m119.07 152c-0.76823 0-1.5399-0.1037-2.2986-0.31541-0.36899-0.10201-0.80453-0.24197-1.2997-0.40184-3.1542-1.0145-8.4359-2.7143-13.726 8.6e-4 -1.7551 0.89872-3.7936 0.93415-5.5963 0.0959-1.8303-0.85032-3.1421-2.4723-3.5975-4.4495-0.69564-3.0124 0.92983-6.1381 3.8654-7.4291 3.4281-1.5079 8.8628-2.9243 15.933-1.6523 0.66453-2.6988 2.2079-7.3384 5.5876-11.649-1.4682-0.63601-3.3564-1.5157-5.3422-2.6054-5.9739-3.276-9.7814-6.7534-11.317-10.336-1.8674-4.3579-0.25925-9.2248 4.0036-12.11 3.6822-2.4922 9.2888-3.1153 13.516 1.1122 1.7802 1.7793 4.2283 3.4143 6.8199 5.1452 6.4354 4.2983 13.731 9.1704 10.942 17.536-0.0813 0.2411-0.20309 0.4675-0.36209 0.66626-2.2658 2.837-8.1472 11.415-8.1472 16.968l-6e-3 0.37678c-0.0492 2.8491-1.4457 5.5712-3.7366 7.2822-1.5555 1.1606-3.3849 1.7655-5.2385 1.7655zm-11.139-6.4872c3.7159 0 6.9141 1.0292 8.8645 1.6574 0.43295 0.13913 0.81404 0.2627 1.1346 0.35171 1.3075 0.36381 2.6555 0.0977 3.7936-0.75095 1.2271-0.91686 1.9754-2.3721 2.0005-3.8939l6e-3 -0.34047c0-7.4836 7.3237-17.343 8.8351-19.297 1.3351-4.695-2.6685-7.7808-9.3467-12.241-2.6512-1.7715-5.394-3.6027-7.4741-5.6835-2.6547-2.653-5.9886-1.9754-8.0392-0.58936-2.0757 1.4051-3.6398 4.0624-2.4542 6.8303 2.3419 5.4632 13.107 10.331 17.058 11.746 0.69736 0.24887 1.2176 0.83823 1.38 1.5607 0.16246 0.72243-0.0562 1.4777-0.57985 2.0005-5.8719 5.8728-6.9158 13.745-6.9262 13.825-0.0769 0.61355-0.41307 1.1649-0.92205 1.514-0.51072 0.34826-1.1476 0.46146-1.7456 0.31369-6.9685-1.7447-12.198-0.45109-15.358 0.93847-1.0214 0.45023-1.6212 1.5252-1.3956 2.5026 0.15555 0.67059 0.5954 1.2185 1.209 1.5036 0.5859 0.27134 1.2418 0.2653 1.8026-0.0225 2.8042-1.438 5.6032-1.9253 8.1576-1.9253zm26.58-21.254h8e-3z"/>
  <path d="m150.67 231.57c-12.765 0-23.343-3.4316-30.587-9.924-6.3196-5.6637-9.9914-13.571-10.339-22.266-0.61355-15.343 9.6267-32.082 27.823-33.539 19.58-1.5624 25.521 10.795 27.315 18.304 0.42256 1.7724-0.42603 3.5767-2.0636 4.3882-1.6488 0.81749-3.537 0.41394-4.6976-1.0041-2.6789-3.2691-8.187-8.7539-14.996-8.7539-7.0428 0-17.233 6.1372-17.233 17.233 0 9.2741 7.4542 14.203 13.707 16.704 8.6294 3.4523 37.369 6.8718 55.575-21.735 6.9193-10.873 10.172-22.322 9.6682-34.03-0.48652-11.329-7.2805-21.229-17.731-25.836-0.58848-0.25924-1.0301-0.76737-1.2064-1.3852-1.05-3.6873-2.2252-6.9651-3.0271-9.0641-0.41307-1.0811 0.0994-2.2952 1.1623-2.7541 1.0612-0.46233 2.2969-8.6e-4 2.8007 1.0422 2.3444 4.8427 7.5933 7.7446 11.583 9.326 2.7057 1.0733 5.6369 0.7786 7.468-0.75181 4.5186-3.7824 2.2027-8.5612 2.1016-8.7634-0.11493-0.22035-13.372-25.124-31.798-18.334-2.9969 1.1044-4.9957 2.8629-6.1096 5.3785-1.9512 4.4029-1.1588 11.25 2.2909 19.8 0.26876 0.66626 0.18925 1.4224-0.21258 2.0169s-1.0724 0.95231-1.7905 0.95231h-37.465c-0.80799 0-1.5468-0.45023-1.9184-1.1675-0.37158-0.71639-0.31196-1.5805 0.15382-2.2399 0.62651-0.88663 1.1303-1.5546 1.4164-1.9262 1.3377-4.6958-2.6659-7.7817-9.3458-12.242-2.6512-1.7715-5.394-3.6027-7.4741-5.6835-2.6547-2.653-5.9886-1.9755-8.0392-0.58936-2.0757 1.4051-3.6398 4.0624-2.4542 6.8303 2.3418 5.4632 13.107 10.331 17.058 11.746 0.69738 0.24888 1.2176 0.83822 1.38 1.5607 0.16247 0.72243-0.0562 1.4777-0.57985 2.0005-0.32059 0.3206-0.62132 0.65157-0.91426 0.98254-0.41048 0.46232-0.99811 0.72761-1.6168 0.72761h-21.621c-6.5641 0-11.226-3.327-13.129-9.3683-0.19184-0.6075-0.10456-1.2694 0.23678-1.807 2.0152-3.174 3.0798-6.8424 3.0798-10.608v-40.128c0-0.57725 0.23159-1.1312 0.64207-1.5365 9.2819-9.1704 30.954-24.315 71.743-22.754 25.796 0.99118 45.073 12.834 57.301 35.196 11.95 21.853 13.733 48.085 13.733 61.776 0 20.726-7.6625 43.332-20.499 60.47-10.849 14.488-30.308 31.758-61.392 31.758zm-9.8574-61.541c-0.92551 0-1.8908 0.0389-2.8992 0.12012-15.607 1.2487-24.382 15.754-23.851 29.058 0.54096 13.556 10.442 28.042 36.607 28.042 29.296 0 47.674-16.329 57.934-30.027 12.296-16.417 19.636-38.054 19.636-57.88 0-13.279-1.7153-38.692-13.203-59.704-11.447-20.936-29.507-32.023-53.675-32.952-38.255-1.476-58.774 12.162-67.899 20.887v39.216c0 4.2309-1.1027 8.3598-3.2 12.008 1.463 3.6675 4.3156 5.4545 8.6917 5.4545h14.819c-4.7572-2.4637-10.464-6.2556-12.496-10.996-1.8674-4.3579-0.25925-9.2248 4.0036-12.11 3.6822-2.4922 9.2888-3.1153 13.516 1.1122 1.7802 1.7793 4.2283 3.4143 6.8199 5.1452 5.9471 3.9725 13.308 8.8887 11.15 16.848h30.484c-2.952-8.4134-3.3287-15.199-1.113-20.198 1.5909-3.5888 4.4729-6.1744 8.5664-7.6823 9.1981-3.3901 18.588-0.85206 27.155 7.3341 6.247 5.9696 9.8367 12.802 9.9862 13.09 1.3974 2.7938 2.5086 9.2793-3.1775 14.039-2.9459 2.4663-7.2347 3.0816-11.303 1.6531 7.0472 6.0154 11.385 14.698 11.797 24.271 0.54268 12.61-2.9364 24.901-10.34 36.535-19.774 31.074-51.328 27.227-60.825 23.428-10.744-4.2983-16.423-11.461-16.423-20.716 0-12.702 11.359-21.554 21.554-21.554 5.8659 0 11.857 3.117 17.033 8.8239-2.0783-6.5226-7.1777-13.247-19.349-13.247z"/>
  <path d="m190.53 81.17c-0.44072 0-0.8849-0.13394-1.2694-0.41393-0.10888-0.07864-11.68-8.206-34.284-8.206-22.682 0-33.268 6.1001-33.372 6.1614-1.024 0.60232-2.3496 0.26962-2.9589-0.75354-0.60836-1.0223-0.27911-2.3427 0.74144-2.9554 0.46061-0.27653 11.563-6.7732 35.589-6.7732 24.129 0 36.319 8.664 36.826 9.033 0.96439 0.70169 1.1778 2.0524 0.47615 3.0176-0.42257 0.58244-1.0802 0.89008-1.7482 0.89008z"/>
 </g>
 <path d="m44.601 60.685c-2.7262 1.5812-2.4039 2.361-2.4039 2.361-2.4951 5.1092 48.307 22.564 49.376 19.612 0.2625-0.72503-0.27196-3.0421-0.27196-3.0421z" opacity=".26531" stroke="#000" stroke-width=".5px"/>
 <g transform="matrix(.13814 .055618 -.055618 .13814 56.596 -2.0145)">
  <path d="m256 322.95c49.613 0 147.14-14.223 192.04-21.207 13.973-2.1758 27.656 5.3008 33.383 18.234l17.859 40.32c7.3789 16.664-0.98828 36.074-18.176 42.141-39.746 14.027-114.07 34.922-204.06 34.922h-42.086c-89.992 0-164.31-20.895-204.06-34.922-17.188-6.0664-25.555-25.48-18.176-42.141l17.855-40.32c5.7305-12.934 19.41-20.41 33.387-18.234 44.891 6.9844 142.42 21.207 192.04 21.207" fill="#fff"/>
  <path d="m404.46 112.98c-22.219-14.164-47.215-25.797-63.723-20.414-30.793 10.043 7.7266 142.35 112.29 208.8 0 0-156.74 20.957-181.36 21.203-24.625 0.24219-75.105-3.1836-90.086-4.8906s-117.61-15.938-117.61-15.938 37.199-272.02 170.09-289.53c89.355-11.777 159.64 37.551 199.55 76.457" fill="#ff5b5b"/>
  <path d="m501.37 137.46c0 28.43-23.047 51.473-51.477 51.473-28.426 0-51.473-23.043-51.473-51.473 0-28.43 23.047-51.473 51.473-51.473 28.43 0 51.477 23.043 51.477 51.473z" fill="#ffde55"/>
  <path d="m508.47 356.59-17.855-40.32c-6.1406-13.859-19.273-23-33.871-24.402-82.91-53.715-119.94-147.83-115.69-181.53 0.64062-5.0742 2.1016-7.3633 2.875-7.6133 5.6406-1.8359 19.105-2.082 47.633 14.789-2.2227 6.3672-3.4453 13.199-3.4453 20.316 0 34.062 27.711 61.773 61.773 61.773s61.777-27.711 61.777-61.773-27.715-61.773-61.777-61.773c-4.6055 0-9.0859 0.51953-13.402 1.4805-24.891-23.473-51.699-41.988-79.766-55.074-40.441-18.848-82.168-25.613-124.02-20.098-33.051 4.3555-63.121 23.348-89.363 56.441-20.297 25.594-38.406 59.758-53.828 101.54-20.836 56.441-30.984 110.73-34.398 131.54-14.539 1.4453-27.609 10.57-33.727 24.387l-6.8086 15.371c-0.87891 1.207-1.4961 2.5859-1.7891 4.043l-9.2578 20.906c-4.6523 10.5-4.7109 22.57-0.16016 33.109 4.543 10.535 13.359 18.77 24.18 22.586 37.57 13.258 114.47 35.5 207.41 35.5h42.082c92.938 0 169.84-22.242 207.41-35.5 10.824-3.8164 19.637-12.051 24.184-22.586 4.5469-10.539 4.4883-22.609-0.16406-33.109zm-17.406-218.76c0 22.703-18.469 41.172-41.172 41.172-22.703 0-41.172-18.469-41.172-41.172 0-17.965 11.574-33.27 27.652-38.879 0.41797-0.11719 0.83203-0.25 1.2344-0.42187 3.8828-1.2148 8.0078-1.8711 12.289-1.8711 22.699 0 41.168 18.469 41.168 41.172zm-382.22 29.648c14.664-39.73 31.703-71.984 50.645-95.871 22.805-28.758 48.344-45.184 75.914-48.816 77.082-10.164 139.12 26.809 180.3 63.621-5.3828 3.5859-10.16 8.0039-14.176 13.051-27.348-16.086-48.344-21.43-63.984-16.328-5.3828 1.7578-14.738 7.2891-16.926 24.621-5.3008 42.012 32.945 130.43 105.07 187.2-56.82 7.4258-137.86 17.52-154.13 17.68-23.414 0.23828-73.25-3.0508-88.812-4.8203-11.863-1.3516-80.496-10.812-106.96-14.469 3.6133-21.344 13.625-73.211 33.062-125.87zm381.32 214.25c-2.3672 5.4883-6.7734 9.6016-12.406 11.59-36.355 12.832-110.77 34.352-200.72 34.352h-42.082c-89.941 0-164.36-21.52-200.71-34.352-5.6328-1.9883-10.039-6.1016-12.406-11.59-2.3711-5.4883-2.3398-11.523 0.08203-16.996l4.4961-10.152c11.879 7.2773 34.113 15.438 75.707 19.77 0.36329 0.0391 0.72266 0.0586 1.0781 0.0586 5.2109 0 9.6836-3.9375 10.234-9.2344 0.58985-5.6602-3.5195-10.727-9.1797-11.312-45.473-4.7383-63.172-13.887-69.367-18.41l4.8867-11.035c3.4336-7.75 11.117-12.621 19.395-12.621 0.48047 0 0.96484 0.0195 1.4531 0.0547 0.61719 0.21093 1.2578 0.37109 1.9297 0.46484 1 0.13672 7.3828 1.0234 16.719 2.3125 24.5 3.6914 54.758 7.9883 84.578 11.535 7.7578 1.0273 13.699 1.7969 16.562 2.1211 3.8828 0.44141 9.8789 0.98047 17.078 1.543 22.168 2.1562 42.641 3.5508 58.512 3.5508 2.9844 0 26.867-0.71875 36.102-1.6055 40.543-3.043 91.531-9.875 130.98-15.703 17.387-2.2617 29.582-3.8906 31.309-4.1211 0.12109-0.0156 0.23437-0.0391 0.35156-0.0625 7.5273 0.6875 14.32 5.3867 17.488 12.531l17.855 40.32c2.4219 5.4688 2.4492 11.504 0.082 16.992z"/>
  <path d="m130 360.01-0.29297 0.1914c-4.6523 3.0352-5.9648 9.2656-2.9297 13.918 1.9297 2.957 5.1484 4.5625 8.4336 4.5625 1.8828 0 3.7891-0.52734 5.4844-1.6328l0.29688-0.19141c4.6484-3.0352 5.9609-9.2656 2.9258-13.918-3.0312-4.6524-9.2617-5.9648-13.918-2.9297z"/>
  <path d="m192.57 90.566c23.848-39.273 62.398-34.836 64.102-34.617 5.4766 0.74219 10.535-3.0898 11.301-8.5742 0.76953-5.5039-3.0664-10.582-8.5664-11.352-2.1562-0.30469-53.125-6.7852-84.027 44.102-2.8828 4.75-1.3711 10.934 3.375 13.816 1.6328 0.98828 3.4336 1.4609 5.2109 1.4609 3.3984 0 6.7148-1.7227 8.6055-4.8359z"/>
  <path d="m161.07 101.92-0.30078 0.19141c-4.6602 3.0234-5.9844 9.25-2.9648 13.91 1.9258 2.9688 5.1523 4.5859 8.4492 4.5859 1.875 0 3.7695-0.52344 5.4609-1.6211l0.29688-0.19141c4.6602-3.0234 5.9883-9.25 2.9648-13.91-3.0195-4.6562-9.2461-5.9844-13.906-2.9648z"/>
 </g>
</svg>
