<?xml version="1.0" encoding="UTF-8"?>
<svg width="1080" height="720" version="1.1" viewBox="0 0 286 191" xmlns="http://www.w3.org/2000/svg" xmlns:cc="http://creativecommons.org/ns#" xmlns:dc="http://purl.org/dc/elements/1.1/" xmlns:rdf="http://www.w3.org/1999/02/22-rdf-syntax-ns#" xmlns:xlink="http://www.w3.org/1999/xlink">
 <defs>
  <filter id="filter3173" x="-.494" y="-.494" width="1.99" height="1.99" color-interpolation-filters="sRGB">
   <feGaussianBlur stdDeviation="5.2236832"/>
  </filter>
  <filter id="filter3173-1" x="-.494" y="-.494" width="1.99" height="1.99" color-interpolation-filters="sRGB">
   <feGaussianBlur stdDeviation="5.2236832"/>
  </filter>
 </defs>
 <metadata>
  <rdf:RDF>
   <cc:Work rdf:about="">
    <dc:format>image/svg+xml</dc:format>
    <dc:type rdf:resource="http://purl.org/dc/dcmitype/StillImage"/>
    <dc:title/>
   </cc:Work>
  </rdf:RDF>
 </metadata>
 <path d="m228.09 31.991c1.2781-1.435 2.5562-2.6982 3.8343-1.1198 0.40744 2.7224-0.85012 5.3407 1.3912 8.1776 3.9686-0.99376 7.7642-0.46033 11.367-1.018-0.17628-3.8569-0.48396-7.7139-0.91617-11.571 1.5887-1.0847 3.1774-2.8809 4.766-0.30074-0.18908 3.0501-1.0305 6.0458 0.19195 9.2135l0.096 2.3034c-0.17638 4.5268-0.0746 9.0536 0.7678 13.58-1.9287 0.56936-3.8944 1.1839-4.7028 0.3839l1.1037-2.1114c-0.70218-2.4517-1.1494-5.2312-0.95975-8.8296-2.8984 0.02405-6.6187-0.39681-11.037 0.67182 0.77548 2.9672 1.1075 5.9748 0.47987 9.0696-1.2255 1.1912-2.5857 1.1701-3.935 1.2477-0.66996-1.4076-0.89511-2.8152-1.1997-4.2229 0.94981-4.8168-0.2123-10.162-1.2478-15.475z" fill-rule="evenodd" stroke="#000" stroke-width=".19002px"/>
 <use id="brightnessOfTheLamp_P" transform="rotate(35 -22.697 551.6)" width="100%" height="100%" xlink:href="#g2501"/>
 <g id="g2501" transform="rotate(-30.9 -308 188)">
  <circle cx="-47.6" cy="151" r="12.7" fill="#0f0" filter="url(#filter3173)" stroke-width="0"/>
  <path d="m-47.5 150c-0.344-0.057-0.531-0.409-0.617-0.73-0.629-1.6-1.74-4.77 0.6-5.42 2.8 0.713 1.27 4.06 0.815 5.71-0.118 0.331-0.467 0.535-0.798 0.45z" fill="#0f0" stroke="#000" stroke-width=".0529"/>
  <ellipse cx="-47.5" cy="145" rx=".808" ry="1.21" fill="#fff" opacity=".644" stroke-width="0"/>
 </g>
 <g id="g1108" transform="translate(4.23 -57.9)">
  <circle transform="rotate(-30.9 -179 139)" cx="-47.6" cy="151" r="12.7" fill="#f0f" filter="url(#filter3173-1)" stroke-width="0"/>
  <path d="m-60.5 81c-0.324 0.128-0.666-0.0783-0.904-0.31-1.36-1.05-3.94-3.2-2.27-4.96 2.77-0.826 3.17 2.83 3.63 4.48 0.0687 0.345-0.126 0.699-0.454 0.796z" fill="#f0f" stroke="#000" stroke-width=".0529"/>
  <ellipse transform="rotate(-30.9)" cx="-93.5" cy="33.4" rx=".808" ry="1.21" fill="#fff" opacity=".644" stroke-width="0"/>
 </g>
 <g id="g944" transform="translate(-46.2 -70.3)">
  <circle transform="rotate(-30.9 -78.7 169)" cx="-47.6" cy="151" r="12.7" fill="#0ff" filter="url(#filter3173-1)" stroke-width="0"/>
  <path d="m-61.5 137c-0.324 0.128-0.666-0.0783-0.904-0.31-1.36-1.05-3.94-3.2-2.27-4.96 2.77-0.826 3.17 2.83 3.63 4.48 0.0687 0.345-0.126 0.699-0.454 0.796z" fill="#0ff" stroke="#000" stroke-width=".0529"/>
  <ellipse transform="rotate(-30.9)" cx="-123" cy="80.7" rx=".808" ry="1.21" fill="#fff" opacity=".644" stroke-width="0"/>
 </g>
 <g id="g970" transform="translate(-.976 -120)">
  <circle transform="rotate(-30.9 13.7 188)" cx="-47.6" cy="151" r="12.7" fill="#f00" filter="url(#filter3173-1)" stroke-width="0"/>
  <path d="m-58.3 187c-0.324 0.128-0.666-0.0783-0.904-0.31-1.36-1.05-3.94-3.2-2.27-4.96 2.77-0.826 3.17 2.83 3.63 4.48 0.0687 0.345-0.126 0.699-0.454 0.796z" fill="#f00" stroke="#000" stroke-width=".0529"/>
  <ellipse transform="rotate(-30.9)" cx="-146" cy="125" rx=".808" ry="1.21" fill="#fff" opacity=".644" stroke-width="0"/>
 </g>
 <g id="g996">
  <circle transform="rotate(-30.9 -149 244)" cx="-47.6" cy="151" r="12.7" fill="#ff0" filter="url(#filter3173-1)" stroke-width="0"/>
  <path d="m-110 111c-0.324 0.128-0.666-0.0783-0.904-0.31-1.36-1.05-3.94-3.2-2.27-4.96 2.77-0.826 3.17 2.83 3.63 4.48 0.0687 0.345-0.126 0.699-0.454 0.796z" fill="#ff0" stroke="#000" stroke-width=".0529"/>
  <ellipse transform="rotate(-30.9)" cx="-151.43" cy="33.916" rx=".808" ry="1.21" fill="#fff" opacity=".75" stroke-width="0"/>
 </g>
 <g fill-rule="evenodd" stroke="#000">
  <path d="m46.4 36.3c-0.62 0.0164-1.11 0.609-1.63 1.1-0.805 2.58-1.35 5.17-2.51 7.75-0.735 2.18-0.609 4.66-2.21 6.55 0.531 1.05 1.3 1.37 2.06 1.76 0.885-1.59 0.437-4.15 1.43-6.23 2.16 0.205 4.03-0.292 5.5-1.8 1.32 2.62 3.53 4.67 3.3 8.27 0.999 0.842 2.05 0.515 3.11 0.0643-1.67-1.49-2.69-5.49-3.94-8.59-0.692-2.98-3.02-5.46-3.83-8.14-0.495-0.551-0.912-0.748-1.28-0.738zm0.246 4.21c0.368-9.85e-4 0.652 0.978 1.02 1.29 0.715 0.854 1.32 2.36 0.163 3.13-0.899 0.522-2.88 0.428-2.79-0.962 0.895-0.794 0.75-2.07 1.21-3.08 0.147-0.279 0.279-0.388 0.402-0.389z" stroke-width=".17px"/>
  <g stroke-width=".017">
   <path d="m72.1 27.3c-3.26-0.0485-5.69 1.3-7.08 4.41-1.56 1.54-0.686 1.89 0.791 1.94 0.0012 1.8-0.103 3.62 1.11 5.2 0.0826 2.44 0.241 4.88 0.664 7.32-0.357 0.692-1.6 1.18 0.321 2.4 0.0738 0.731 0.958 0.556 1.99 0.214 0.67-0.565 1.56-0.839 2.91-0.493 4.78-0.259 7.46-2.64 7.81-7.84 0.244-1.22-0.345-2.04-0.975-2.95-1.36-1.96-2.75-3.28-4.71-2.73-0.466-0.378-0.739-0.757-0.921-1.13 1.21-1.08 2.42-2.17 3.18-3.28 0.457-0.727 0.0846-1.45-0.152-2.18-1.8-0.566-3.46-0.877-4.94-0.899zm0.599 2.46c0.251-0.0059 0.507 0.0579 0.758 0.0997 0.514 0.115 1.09 0.21 1.47 0.614 0.237 0.287 0.04 0.673-0.18 0.904-0.658 0.69-1.52 1.13-2.35 1.58-0.324 0.0937-0.475 0.397-0.738 0.581-0.407 0.318-0.951 0.218-1.4 0.0772-0.49-0.319-1.11-0.205-1.63-0.0189-0.402-0.0034-0.316 0.466-0.665 0.559-0.516 0.144-1.14-0.0774-1.43-0.527-0.223-0.369 0.0761-0.778 0.384-0.981 0.794-0.537 1.75-0.751 2.67-0.959 0.669-0.878 1.64-1.49 2.68-1.83 0.144-0.0732 0.293-0.102 0.444-0.105zm-1.3 8.14c2.11 0.0182 4.41 0.983 6.79 1.13 0.475 1.97 1.03 3.96-0.3 5.7-1.44 0.504-2.74 1.29-4.4 1.36l-1.2-0.666c-1.98 0.245-0.806 0.712-0.0302 1.15-0.79 0.632-1.66 0.646-2.57 0.394-0.062-0.942-0.125-1.88-1.21-1.29-0.301-2.28-0.547-4.56-0.212-6.77 0.981-0.763 2.03-1.01 3.14-1z"/>
   <path d="m101 32.2c0.0824 0.375 0.623 1.66 0.481 0.565-0.67-1.14 1.55-1.29 0.729-2.43-0.57-0.774-1.37-1.54-2.38-1.12-1.99 0.135-4.16 0.0257-5.84 1.3-1.91 1.42-3.01 3.64-3.87 5.8-0.831 2.27-1.03 4.86-0.056 7.12 0.411 1.05 0.965 2.03 1.43 3.05 2.09 1.8 4.28 3.68 6.98 4.47 1.46 0.402 3.29 0.215 4.26-1.08 0.764-0.551 1.03-1.95-0.209-2.06-0.7-0.219-1.31-0.291-1.58 0.474-1.09 0.281-2.29-0.0397-3.36-0.325-2.51-0.774-4.39-2.81-5.7-5.01-0.439-2.86 0.166-5.95 2.08-8.18 0.756-0.884 1.61-1.72 2.62-2.31 1.41-0.586 2.96-0.528 4.43-0.257z"/>
   <path d="m125 27.1c-1.5-0.0166-2.9 0.225-4.2 0.758-0.475 0.332-0.835 0.349-1.03-0.0855-2.56-0.136-1.96 1.11-2.18 1.99-0.586 0.984-1.93 1.36-3.13 1.84-0.0172 0.628-0.591 1.26 0.3 1.88 0.943 0.0215 1.85-0.362 2.71-1.19 0.575-0.0365 1.22-0.338 1.53 0.578 0.716 3.98 1.43 7.96 0.921 11.9 0.35 0.935-1.14 4.52 1.39 2.31 1.48-0.271 1.51-0.821 1.54-1.37 0.594-0.188 1.25-0.0291 1.63-1.46 1.45 0.154 3.23-2.7 4.63-2.25 2.56-1.83 3.21-4.49 3.15-7.45 0.229-3.26-1.93-5.52-5.16-7.32-0.717-0.111-1.42-0.172-2.1-0.18zm2.61 3.37c1.84 0.422 3.51 1.09 3.38 4.43-2.3 8.48-4.87 6.14-7.32 8.31-0.134-3.22-2.21-5.88-2.12-11.8 2.46 0.338 4.19-0.391 6.06-0.921z"/>
   <path d="m145 29.5c3.68-1.16 7.65-1.31 11.4-0.485 0.672 0.451 0.145 1.83 1.2 1.25 1.2 0.0365 0.715 1.45-0.134 1.69-0.736 0.751-0.964-0.507-1.2-0.794-2.67-0.0979-5.53-0.739-8.05 0.513-1.01 0.331-1.06 1.56-1.45 2.41-0.241 0.913-0.701 2.25-0.439 2.97 2.05-0.268 4.24-0.611 6.22 0.194 1.38 0.677-0.704 1.63-1.42 1.81-1.9 0.474-3.97 0.449-5.68 1.53 0.0414 1.76 0.0786 3.54-0.273 5.27 0.653 1.33 1.18-0.569 1.5-1.14 0.543-0.942 1.78-1.14 2.74-0.769 3.72-0.402 7.68-0.57 11.2 0.999-0.0371 1.15-1.58 0.613-2.33 0.799-0.479 0.0797-1.5-0.0295-1.66 0.261 1.08 0.255 2.21 0.186 3.29 0.394 1.13 0.661-0.454 1.19-1.12 1.05-3.31 0.338-6.67 0.642-9.96 0.0192-0.894-0.12-1.98-0.325-2.59 0.537-0.6 0.319-0.887 0.618-0.912 1.38-0.213 1.12-1.85 0.607-2.32-0.0745-0.932-0.991 8e-3 -2.44-0.121-3.66 0.0839-1.5 0.226-3.04 0.0519-4.53-0.317-1.09-1.54-0.895-2.35-1.25-0.496-0.815 1.18-1.43 1.84-1.32 0.706-0.575 0.37-1.65 0.73-2.42 0.599-2.22 1.8-4.29 1.86-6.64z"/>
  </g>
 </g>
 <use id="brightnessOfTheLamp_B" transform="rotate(-2.17 -1138 -3320.6)" width="100%" height="100%" xlink:href="#g970"/>
 <use id="brightnessOfTheLamp_C" transform="rotate(26.2 178.73 513)" width="100%" height="100%" xlink:href="#g996"/>
 <use id="brightnessOfTheLamp_D" transform="rotate(35 4.6815 379.81)" width="100%" height="100%" xlink:href="#g2501"/>
 <g fill-rule="evenodd">
  <g stroke-width=".17px">
   <path d="m174 29.2c-0.828-0.102-1.91-0.145-2.43 0.629-0.209 0.457-0.418 0.913-0.628 1.37 1.1-0.0914 2.28-0.0633 3.27 0.485 0.773 0.217 0.562 1.33 0.641 1.97 0.0138 1.91-0.276 3.81-0.226 5.72 0.215 1.48 0.427 2.98 1.07 4.34 0.552 0.782 1.57 0.017 1.76-0.654 0.622-1.66 0.366-3.48 0.145-5.19 1.79-0.434 3.57-0.868 5.36-1.3 0.55-0.937-0.952-1.35-1.59-0.958-1.24 0.289-2.52 0.0935-3.77-0.0716-0.522-1.18-1.15-2.62-0.442-3.86 0.468-1.01 1.81-0.239 2.7-0.468 2.3-0.039 4.57-0.433 6.83-0.852 0.415-1.07-1.15-1.3-1.89-1.17-2.98-0.0281-5.96-0.573-8.77-1.55-0.907-0.271-1.74 0.377-1.93 1.26l-0.0504 0.153z"/>
   <path d="m211 29.4c0.706-0.0391 2.02 0.526 1.03 1.23-0.694 0.52-1.4 1.13-2.3 1.19-0.421 0.092-1.32-0.238-1.75-0.126-1.74 0.457-3 1.58-4.1 3.07-1.3 1.83-1.09 4.26-0.603 6.34 0.067 0.928 1.04 1.43 1.75 1.87 1.67 0.859 3.69 1.39 5.54 0.79 0.921-0.305 1.65-1.07 1.95-1.99 0.638-0.31 0.72-1.23-0.171-1.05-1.45 0.0583-2.86 0.433-4.28 0.717-0.607-0.432-1.25-1.24-0.811-2 0.477-0.771 1.25-1.35 2.13-1.58 1.5-0.605 3.23-1.01 4.8-0.386-0.815 0.676-0.769 1.92-0.377 2.8 1.18 1.49 0.963 3.73-0.22 5.16-1.6 2.06-4.48 2.65-6.93 2.09-1.28-0.269-2.49-0.767-3.62-1.41-2.66-1.49-2.91-2.03-2.88-4.91 0.0329-2.61 0.795-5.22 2.46-7.27 2.04-2.57 5.19-4.03 8.38-4.53z"/>
   <path d="m9.84 77.7c3.85-2.41 8.1-4.12 12.5-5.17 1.74-0.44 3.49-0.837 5.22-1.29 0.232 0.452 0.684 0.942-0.0546 1.18-1.12 1.05-2.44 1.98-4.02 2.13-0.973 0.309-1.8 1.04-2.68 1.56-1.22 0.341-0.515 1.47-0.379 2.33 0.901 3.62 2.1 7.37 1.28 11.1-0.302 1.39-0.816 2.76-1.57 3.96-0.0399 0.0639-0.0805 0.127-0.122 0.19-0.736 2.37-0.125 8.23-0.628 0.46-4e-3 -0.0616-0.102 0.0689-0.154 0.103-1.16 0.761-2.5 1.28-3.91 1.11-1.23-0.131-2.3-0.762-3.54-0.796-0.722-0.147-2.29-0.817-2-1.47 0.707-0.492 1.57 0.539 2.37 0.533 2.01 0.62 4.43 0.582 6.05-0.917 0.835-0.698 1.47-1.62 1.54-2.73 0.651-3.15 0.376-6.47-0.774-9.47-0.291-1.16-0.0199-2.54-0.843-3.5-0.84-0.32-1.61 0.903-2.54 0.985-1.2 0.577-2.35-0.843-3.47 0.179-0.628 0.748-1.36 0.74-1.9 0.164-0.13-0.14-4.1 1.45-0.383-0.654z"/>
   <path d="m42.4 79.6c-0.495 2.07-0.168 4.24 0.236 6.42-0.159 0.387-0.685 0.614 0 1.37 0.581 3.93-0.343 6.78 0.514 8.27 0.295 1.11 0.763 0.981 1.28 0.45 0.318-2.16 1.69-3.56 0.664-5.16 0.111-1.26-0.224-3.18 1.39-2.18 1.45 1.33 2.73 2.65 5.11 3.98 1.59 0.642 2.1 1.91 2.63 3.16 1.09 0.0664 1.79-0.147 1.74-0.878-2.73-2.61-5.37-5.08-8.59-8.45-0.889-0.916-0.987-1.67 0.0642-2.18 2.79-1.14 5.08-2.74 7.07-4.63 2.03-2.03 2.51-3.09 1.11-2.96-3.02 2.1-5.69 4.63-9.17 6.17-0.894 0.663-1.46 0.614-1.37-0.857l-0.642-2.48c-0.596-1.54-1.18-3.23-2.06-0.0429z"/>
  </g>
  <g stroke-width=".017">
   <path d="m77 78.7c0.0506 3.98-0.276 8 0.397 11.9 0.625 1.37-1.3 2.05-2.06 2.93-0.899 0.489-0.898 2.17-0.26 2.89 0.634 0.496 1.99-0.579 1.71 0.768 0.198 1.59 0.237 3.23 0.616 4.78 0.219-1.48 0.0741-3.03 0.129-4.53-0.335-1.26 1.02-2.17 2.14-2.28 1.21-0.299 1.22 1 1.5 1.84 0.247-0.94-0.434-2.43 1.11-2.31 1.43-0.397 2.76 0.373 4.15 0.486 1.29 0.0934 2.59-0.0851 3.87 0.13 1.2 0.0838 2.4-0.0471 3.59-0.193-1.77-1.52-4.14-1.95-6.36-2.3-1.68-0.611-3.43-1.15-5.23-1.1-0.125-1.44-2.77-0.0199-2.14-1.56 0.452-3.88 0.236-7.83-0.582-11.6-0.457-0.642-1.43-2.38-2.16-1.12-0.202 0.398-0.315 0.835-0.416 1.27z"/>
   <path d="m107 93.1c0.914 0.61 1.15 1.58 1.09 2.68 0.158 0.584-0.277 1.91 0.198 2.02-8e-3 -1.02-0.0323-2.13 0.236-3.16-0.176-1.23 2.14-0.978 1.55-2.47-2e-3 -1.38-0.392-3.05 0.649-4.17 0.446-0.993 0.741-2.17 0.666-3.3-0.0132-0.5 0.0212-1.51 0.305-0.514 0.221 1.15 1.21 1.75 1.9 2.59 0.331 0.956-0.0747 2.35 0.888 3.13 0.752 1.29 2.56 0.547 2.61-0.82-0.867-0.491-1.28-1.95-0.451-2.65 1.07-1.32 1.84-2.87 2.21-4.52 0.349-0.854 0.783-2.49 1.69-2.51 1.08 1.51 1.56 3.35 2.23 5.05 0.877 2.42 1.62 4.89 2.68 7.24 0.384 1.01 0.599 2.23-4.8e-4 3.19-0.076 0.726 1.23 1.77-0.223 1.7-0.886-0.0127-0.589 0.355 0.0566 0.479 0.517 0.828 2.25 0.376 1.82-0.68 0.632-0.369 1.33-0.52 0.872-1.44-0.907-3.32-2.61-6.4-3.2-9.81-1.21-3.34-3.05-6.5-3.56-10.1-0.476-0.608-2.19-1.96-1.69-0.203 0.619 2.56-0.755 4.98-1.98 7.12-0.673 0.737-0.362 1.65-0.789 2.52-0.216 0.968-1.19 2.38-1.82 0.801-1.56-2.22-2.89-4.61-4.59-6.73-0.537-0.649-1.28-1.29-1.89-0.949 0.047 0.508 0.344 0.995 0.636 1.4 0.271 0.374 0.546 0.805 0.0441 0.825-2.07 0.621-0.119 6.17-1.62 7.95 0.936 0.601 1.59 1.83 0.994 2.89-0.391 0.859-1.04 1.56-1.49 2.39z"/>
   <path d="m147 81.1 0.942 3.21c0.336 3.64 0.231 7.02 0 10.3-0.544 1.45-1.46 3.13 0.3 3.21 0.526-1.14 2.84-0.291 1.24-3.04 1.04-2.29-0.267-7.14 0.642-9.04-0.771-1.83 0.0732-0.95 0.857-0.171 0.794 0.381 2.24 1.81 3.79 3.12 1.97 1.66 4.27 3.43 3.75 3.81 0.419 0.313 1.21 0.885 0.957 1.66-0.334 1.02 2.13 2.87 1.78 0.223 2.36-1.79 0.246-7.22-1.33-9.47 0.33-3.46-1.04-7.69-0.899-11.5 0.364-3.99-0.502-4.47-1.61-4.28-0.905 9e-3 -1.38 0.314-1.03 1.18l1.18 8.31 1.31 10.4-0.6 0.428c-2.38-2.13-5.52-6.7-8.97-9.21l-1.82-0.727-0.545 1.64 0.0909-0.273z"/>
   <path d="m185 79.5c0.926 0.255 1.76 0.773 2.55 1.46 1.01 0.102 0.474 2.4 0.628 3.71 2.44 3.3-1.49 7.93-3 13.1-1.42 2.93-2.75 5.91-6.97 7.27-1.26 0.962-2.49 0.647-3.69-0.182l-0.265-0.0922c-0.688 1.02-0.356 2.54-0.468 2.98-0.0179 0.0715-0.0676 0.125-0.0574 0.171 0.41 1.83-0.806 0.733-0.204 0.0191 0.0275-0.0326 0.0364-0.0622 0.0189-0.147-0.0958-0.466-0.158-1.63-0.206-3.34l-0.212-0.0737c-0.345-0.764-0.391-2.13-1.09-2.18-1.82-1.19-1.94-4-0.606-8.18 0.947-3.85 1.81-7.74 3.63-11.1 1.01-1.76 2.16-3.45 3.39-5.09 1.41-0.692 2.79-1.76 4.36-0.545 0.363 0.742 1.68 1.9-0.121 1.7-1.45-0.2-1.99 0.654-2.42 1.64-2.74 1.85-3.77 5.39-4.97 8.78-1.15 3.22-1.05 6.15-0.727 9.03-1.03 1.46-0.264 2.37 0.303 3.33 1.37 0.829 2.95 0.66 4.54 0.424 1.74-1.41 3.21-2.93 3.82-4.85 1.01-3.01 2.23-5.82 2.54-9.51 0.619-2.27 0.293-4.81-0.424-7.45-0.414-0.29-0.393-0.58-0.36-0.87z"/>
   <path d="m210 80.9c-3.61 0.0744-7.34 0.848-10.4 2.82-1.57 0.801-0.595 2.39 0.151 3.14 0.0438 0.604 0.148 2.74 0.251 1.01 0.0589-0.758-0.0589-1.53 0.875-1.52 0.75-0.0306-0.0719 1.88 0.315 2.56-0.0528 0.772 0.761 1.46 1.4 0.817 0.0888 2.76 1.27 5.3 2.01 7.92-0.12 2.19 0.533 4.36 1.69 6.21 0.618 1.02 0.477 2.61-1.07 2.21-1.44-0.304-0.829 1.38-0.38 2.06 0.263 0.764 0.833 1.02 1.6 1.14 0.948 0.175 1.38 0.88 1.5 1.66 4e-3 -0.695-0.274-1.43 0.686-1.04 0.545-1.05-0.341-2.61-0.581-3.82-0.571-1.77-1.41-3.69-0.703-5.54 3.35-0.89 6.33-2.76 8.99-4.93 0.814-0.616 1.84-1.02 2.27-2.04 0.746-1.34 1.12-2.85 1.91-4.16 0.0611-1.61-1.38-2.93-2.35-4.11-1.76-1.79-3.9-3.15-6.11-4.33-0.681-0.0448-1.36-0.0644-2.05-0.056zm-2.14 2.7c2.91 0.462 6.08 0.852 8.36 2.91 1.26 0.899 2.9 2.11 2.69 3.86-0.306 1.38-1.64 2.12-2.51 3.11-2.04 2-4.86 2.71-7.44 3.71-0.805 0.348-2.57 1.56-2.56-0.129-0.042-0.61 0.202-1.15-0.466-1.13-0.668-1.4-0.585-3.04-0.877-4.54-0.355-2.07-0.587-4.36-2.02-6.01 1.77 0.0021 3.41-0.758 4.82-1.78z"/>
   <path d="m244 78.8c-1.61-0.217-2.96 0.64-4.15 1.62-3.1 2.38-5.12 5.87-6.72 9.37-0.465 2.02-0.508 4.23 0.235 6.17 2.1 3.09 5.29 5.43 8.93 6.34 1.02 0.425 2.73-0.0378 2.44 1.62 0.107 0.643-0.0727 1.75 0.0862 2.11 0.416-1.04 0.412-2.52 0.978-3.32 1.34-0.237 2.59-0.984 3.81-1.59 2.7-1.44 4.84-3.72 6.51-6.25 0.179-3.01 1.91-6.09-0.136-9.04-0.428-1.35-1.15-2.6-1.98-3.74-2.98-1.89-6.4-3.34-9.99-3.28zm1.77 2.56c3.98 0.492 7.74 3.77 8.85 7.51-0.334 2.88-0.254 6.1-2.25 8.44-0.948 1.23-2.36 1.91-3.8 2.39-2.51 0.931-5.53 1.62-7.95 0.0927-1.38-0.873-2.52-2.09-3.97-2.85-1.41-1.15 1.31-0.494 1.59-0.626 0.514-0.238-2.68-2.3-2.72-3.26-0.573-3.53 1.12-7.14 3.9-9.3 1.64-1.25 3.55-2.36 5.67-2.38 0.222-0.0125 0.444-0.0174 0.666-0.0142z"/>
   <path d="m243 92.9c-0.106-3.23 1.98-2.03 3.92-1.11 1.58 1.14 3.85 2.21 7.47 3.13 2.57 0.474 5.09 1.87 7.5 5.72-8e-3 1.12 0.364 1.06 1.32 1.16 0.113 0.0115 0.233 0.0576 0.347 0.127 1.86 1.13 0.82 2.26-0.303 1.56-0.238-0.149-0.424 0.374-0.55 0.626 1.58 0.617 2.54 1.16-0.685 1.24-2.02-0.635-3.34-1.62-4.27-2.58-1.1-1.14-2.45-1.81-3.83-2.22l-3.54-2.2c-0.276-1.29-0.955-0.975-1.56-0.968-1.73-1.01-2.57-2.28-3.62-2.47-0.903-0.159-1.51-0.629-2.2-2.01z"/>
   <path d="m32.9 143c-0.902 1.57-8.29-1.55-4.8 2.78 0.318 1.18 0.192 2.18-0.257 3.04-0.371 0.178-0.788 0.333-0.257 0.942 0.33 0.562 0.277 1.34 0.0431 2.23-0.184 0.595-0.169 1.05 0.171 1.28 0.7 3.77 0.508 5.24 0.171 6.34 0.167 1.58 1.17 0.532 1.84 0.514 1.24 0.286 0.983-0.603 0.771-1.46-0.722-1.62-0.48-2.84-0.128-4.03 0.138-0.458-0.221-1.83 1.11-0.0858 1.74 0.468 4.26 4.23 6 4.2 0.667 0.0708 0.158-0.523-0.0427-0.942-0.837-1.6-3.23-2.88-4.58-4.45-0.557-1.19 0.152-1.19 0.899-1.16 2.65-0.537 2.94-1.62 4.03-2.53-0.0498-1.14 1.18-2.14-0.343-3.43-0.985-3.49-3.18-2.89-4.63-3.26zm-1.11 3.39c6.87 0.984 3.96 3.01 0.409 5.1-0.889 0.346-1.63 0.487-1.6-0.485 0.12-1.17 0.173-2.34 0.0908-3.51-0.505-0.805 0.171-1.02 1.11-1.11z"/>
   <path d="m48.8 153c-0.417-1.22 1.34-1.26 1.28-0.0418 0.543 1.26 1.41 2.45 2.56 3.2 2.26 1.05 5.14 1.26 7.21-0.317 1.16-0.845 2.3-2.13 2.05-3.68-0.436-2.12-2.49-3.23-3.78-4.78-0.542-1.05-1.76-1.25-2.68-1.87-1.33-0.754-2.55-1.69-3.76-2.62-0.954-0.882-0.336-2.19 0.628-2.74 1.07-0.505 0.862-1.94 2.14-2.02 1.58-0.556 3.28-0.885 4.74-1.72 1.45-0.453 1.77 1.4 0.888 2.19-0.777 1.35-2.22 0.653-3.41 0.645-1.16-0.0313-2.27 0.629-2.81 1.65 1.19 0.475 2.36 1.25 3.16 2.32 0.621 1.18 1.96 1.2 2.77 2.11 1.94 1.81 4.01 3.96 4.15 6.76-0.127 1.16 0.876 2.64-0.641 3.07-0.853 1.06-2.92 1.57-2.6 3.17 0.011 1.97-0.0915 3.96-0.0805 5.91-0.346-0.111-0.088-1.85-0.199-2.54-0.036-1.39-0.0199-2.79-0.0703-4.17-0.576 0.679-1.93 0.548-2.38 1.03-0.0257 2.38-0.0422 4.76-0.121 7.14 0.255 0.939-0.603 0.384-0.243-0.221-0.13-2.34-0.209-4.68-0.308-7.03-0.756-0.027-1.58-0.289-1.21 0.765 0.0359 2.2 0.0099 4.41-0.0783 6.61 0.386 0.711-0.498 0.646-0.135-0.0386-0.0919-2.47-0.1-4.94-0.126-7.42-1.29-0.227-2.64-0.492-3.8-1.13-1.33-0.975-1.39-2.89-2.71-3.9-0.139-0.125-0.284-0.243-0.434-0.354z"/>
   <path d="m74.6 139c-0.401 0.0443-1.72 0.305-0.603 0.381 0.613-0.127 0.171 0.733 0.788 0.635 0.479 0.38-0.0216 1.34 0.862 1.03 0.973-0.046 1.99-0.155 2.92 0.191-0.397 3.82-0.392 7.67-0.15 11.5 0.0099 0.685 0.464 2.1 1.31 1.24 0.699-0.56 1.07-1.44 1.39-2.26 0.104-0.949-0.402-1.85-0.359-2.81 0.0616-1.48 0.606-2.9 0.662-4.39 0.0833-1.1 0.0807-2.21 0.0539-3.31 0.815-0.426 1.47 0.591 1.51 1.29 0.0158 1.54 0.0234 3.08 0.079 4.61-0.497 0.377 0.209 0.994 0.213 0.279-0.193-0.777 0.0357-1.62-0.0042-2.42 0.0305-0.946 0.056-1.89 0.0799-2.84 0.432-0.25 0.328 1.07 0.56 1.52 0.0378 0.281 0.281 1.06 0.236 0.344-0.0089-0.84-0.237-1.68-0.0625-2.51 0.473-0.359 1.21-0.0886 1.78-0.248 0.925-0.0803 1.86-7e-4 2.76 0.244 0.884-0.0353 0.784-1.61-0.11-1.06-0.575 0.0995-1.01-0.581-0.436-0.921 0.445-1.11-1.35-0.944-2.01-1.08-0.899-0.227-1.77-0.232-2.68-0.0434-2.92 0.341-5.85 0.523-8.78 0.624z"/>
   <path d="m98.6 143c0.774-0.199 1.14-1.48 1.99-1.2 0.628 0.919 0.616 2.11 0.699 3.19 0.127 2.93-0.598 5.96 0.37 8.81 0.56 1.15 1.14 2.48 2.35 3.07 1.12 0.427 2.03-0.638 2.58-1.47 0.927-1.51 1.64-3.15 2.25-4.81 0.951-2.85 1.31-5.87 1.34-8.85-0.0676-1.01-0.497-2.36 0.443-3.1 0.981-0.508 2.13-0.116 3.12 0.146 0.167 1.12 0.353 2.34-0.064 3.42-0.254 0.946-1.71 0.184-1.44 1.3-0.488 3.84-0.852 7.78-2.32 11.4-0.714 1.7-1.87 3.41-3.72 3.99-1.06 0.759-2.58 1.23-3.75 0.443-1.63-1.11-2.4-3.04-3.11-4.8-0.57-1.02-0.106-2.19-0.294-3.29-0.216-2.49-1.13-4.96-0.606-7.47 0.0456-0.257 0.101-0.512 0.164-0.766z"/>
  </g>
  <path d="m130.92 141.69c-0.307-1.27-2.25-1.87-2.08-0.0146-0.568 3.68 0.963 7.27 2.56 10.5 0.828 1.69 1.87 3.28 2.69 4.97 0.897 1.24-0.288 3.15 0.872 3.99 1.4 0.35 3.08-0.905 2.55-2.43-1.2-1.56 0.985-2.14 1.62-3.28 0.372-1.3 1.25-2.2 2.2-3.16 2.41-2.74 4.45-5.78 6.24-8.95 0.114-0.962 1.36-3.57-0.336-3.19-1.62 1.1-1.98 3.11-2.86 4.72-1.68 3.33-3.73 6.49-6.1 9.37-0.623 0.918-2.07 2.89-2.67 0.792-1.51-4.46-3.12-8.88-4.66-13.3z" stroke-width=".17px"/>
  <path d="m207.94 138.6c0.257-0.807 1.59-2.41 1.44-0.573 0.164 1.18-0.64 2.08-0.801 3.22-1.04 4.14-1.74 8.48-3.9 12.2-0.74 1.3-1.72 2.48-2.29 3.87-0.345 1.28 0.636 2.34 1.09 3.45-0.807 1.65-1.54-0.763-2.62-0.69-0.748-0.0985-1.78 0.195-1.45-0.91-0.211-3.71-2.03-7.06-3.6-10.3-0.297-0.382-0.803-1.87-0.986-0.59-0.246 1.18-1.2 2.13-1.51 3.34-0.778 2.02-1.21 4.16-1.94 6.18-0.554 0.755-1.26 2.72-2.42 1.97-0.785-0.872-0.158-1.99 4e-3 -2.97 0.244-1 0.218-2.15-0.432-3-1.07-4.02-1.95-8.11-2.34-12.3 0.117-1.14 0.345-2.28 0.846-3.32 0.952 0.132 0.59 2 1.24 2.7 0.54 1.1 1.9 1.6 1.68 3.08 0.21 2.29 0.0395 4.62 0.56 6.88-0.0274 0.608 0.368 1.2 0.43 0.259 0.202-1.57 0.822-3.04 1.23-4.56 0.258-0.751 0.37-1.56 0.844-2.22 0.599-1.22 0.354-2.75 1.19-3.85 1.22 0.115 1.86-1.14 2.78-1.79 1.35-0.46 1.21 1.41 0.439 2-0.606 1.07-0.208 2.35 0.5 3.25 1.52 3.45 2.6 7.08 3.39 10.8-0.2 0.698 0.0652 2.56 0.955 1.29 1.59-1.75 1.61-4.21 1.95-6.41 0.583-2.7 1.64-5.26 2.53-7.87 0.378-1.04 0.764-2.08 1.16-3.12z" stroke-width=".17px"/>
  <path d="m157.62 145c0.854-1.38-0.43-3.96 2-1.57 1.64 0.285 3.6 2.78 5.63 4.45 3.22-2.72 5.3-6.23 7.66-9.54 2.77-2.15 2.58-0.595 1.91 1.54-2.11 3.25-2.84 5.8-6.36 9.75-0.893 0.498-1.26 1.06-0.333 1.79 1.66 1.45 2.84 3.13 3.91 4.86-0.184 0.779 0.524 1.52 1.62 2.24-0.451 1.27-0.844 2.81-2.01 0.878-2.31-0.927-3.98-2.76-5.36-5.01-0.82-0.591-1.76-0.626-2.92 0.379-2.77 2.14-1.59 4.81-3.86 7.25-2.92 1.13-3.16-0.0198-3.53-1.05 1.46-1.61 0.677 0.0919 6.32-7.67 0.613-0.732 0.605-1.41 0.333-2.06-2.06-1.93-3.55-4.08-5-6.24z" stroke-width=".017"/>
  <path d="m217 137c0.452-0.744 1.02-3.41 2-1.92 3.3 1.92 6.9 3.76 9.09 7.02 3.44-1.32 5.44-4.6 7.31-7.57 1.08-1.69 2.42-3.35 4.35-4.08 1.55-1.14 1.87 0.901 1.34 1.97-0.084 0.645-0.297 1.22-0.72 1.68-0.0916 0.0986-0.193 0.191-0.305 0.278 9e-3 19.5-0.376 13.6-0.767 0.794-4e-3 -0.132-0.184 0.19-0.276 0.285-0.631 0.65-1.26 1.3-1.9 1.95-0.0721 0.074-0.217 0.119-0.216 0.222 9e-3 4.01-0.0146 6.87-0.0623 8.58-4e-3 0.152-0.068 0.306-0.0133 0.428 0.759 1.69-0.949 1.79-0.289 0.105 0.0429-0.109-0.0158-0.242-0.0239-0.375-0.0956-1.57-0.203-4.24-0.314-8.02-2e-3 -0.0721-0.101 0.103-0.151 0.155-1.37 1.41-2.74 2.82-4.09 4.25-3.05 3.87-6.54 7.56-8.33 12.2-1.34 1.26-2.45 2.9-2.48 4.8-0.556-0.415-1.06-0.943-1.65-1.29-0.105-0.0456-0.489-0.257-0.491-0.0583-0.0463 4.32-0.093 6.9-0.139 8.28-4e-3 0.0993-0.0217 0.193-0.01 0.279 0.199 1.46-0.372 1.24-0.169 0.0293 0.0144-0.0864-8e-3 -0.18-0.0124-0.276-0.111-2.6-0.211-8.34-0.283-8.36-0.109-0.0354-0.154-0.0991-0.0795-0.216 1.25-1.77 2.97-3.42 3.29-5.66 2.19-1.91 3.84-4.41 5.02-7.05 0.665-1.66-1.59-1.84-2.54-2.59-2.71-1.51-4.83-3.8-7.08-5.87z" stroke-width=".17px"/>
  <path d="m259.3 25.908c3.03 0.644 6.15 0.14 9.16-0.39 0.796-0.0149 2.53-0.318 2.38 0.892-0.366 1.14-1.39 1.34-2.44 1.4-1.02 0.212-1.57 1.11-1.56 2.1-0.703 4.4-0.991 8.87-0.825 13.3 0.269 0.857 0.248 2.09 1.28 2.42 1.08 0.257 2.18-0.191 3.28 0.0138 1.05 0.0413 2.02 0.725 2.3 1.76 0.654 1.16-0.778 1.46-1.62 1.17-1.5-0.254-2.99-0.56-4.52-0.621-0.0577 0.087-0.258-0.128-0.315-0.0438-0.579 0.851-0.734 1.7-1.04-0.0338-0.0124-0.0716-0.145-0.0054-0.218-0.0081-0.756-0.0275-1.51-0.0409-2.27-0.0666-0.0947-0.0036-0.272-0.104-0.284-0.0103-0.14 1.07-0.521 3.72-0.443 5.42 0.0409 0.889-0.0162 1.53 0.0534 1.96 0.18 1.11-0.583 0.673-0.252 0.0167 0.226-0.45-0.136-1.21-0.174-1.98-0.0543-1.09-0.0866-2.84-0.118-5.47-8.9e-4 -0.0947-0.189-0.0121-0.284-0.0187-0.246-0.0174-0.492-0.0381-0.738-0.0628-0.849-0.207-2.25-1.1-1.67-2.11 0.902-0.68 2.13-0.297 3.15-0.132 1.1 0.317 2.16-0.565 2.17-1.69 0.207-1.67-0.223-3.34-0.403-4.99 0.152-3.31 0.367-6.66-0.232-9.93-1.77 0.0107-3.54 0.0215-5.3 0.0321-0.633-0.466-1.51-1.19-0.488-1.86 0.437-0.41 0.93-0.754 1.43-1.09z" stroke-width=".018"/>
  <path d="m254 125c-1.79 0.856-1.61 2.3-1.33 3.77 4.08-0.467 9.8-2.83 12.1-1.2-2.82 2.91-5.81 5.77-7.92 8.95-1.97 2.01-2.66 7.04-4.84 8.48-2.05 2.69-0.0267 2.63 0.943 3.28 1.31 1.82 2.01 1.23 2.95 1.6 7.6-1.56 15-1.61 22.3-0.101l1.18 0.182 1.52 0.75c1.63 0.842 1.06 0.704 1.65-0.517 0.731-1.52 1.79-3.65-2.89-3.37l-0.936-1.29c-7.09 1.49-14-1.82-21-0.242-3.69 2.09-1.83-0.932-1.42-3.01 1.14 0.444 0.711-1.19 1.35-2.61 0.829-1.84 2.68-3.72 4.13-4.38 4.51-2.08 6.73-6.81 10.8-8.09 0.597-2.18 0.609-3.9-1.76-3.76-5.1 1.17-12-0.94-16.8 1.53z" stroke-width=".017"/>
 </g>
 <use id="brightnessOfTheLamp_V" transform="rotate(5.72 -221.28 2587.3)" width="100%" height="100%" xlink:href="#g996"/>
 <use id="brightnessOfTheLamp_U" transform="rotate(33 -93.805 380.5)" width="100%" height="100%" xlink:href="#g970"/>
 <use id="brightnessOfTheLamp_S" transform="rotate(32.7 -185.72 264.45)" width="100%" height="100%" xlink:href="#g1108"/>
 <use id="brightnessOfTheLamp_T" transform="rotate(55.3 -76.674 279.86)" width="100%" height="100%" xlink:href="#g944"/>
 <use id="brightnessOfTheLamp_N" transform="rotate(9.04 6.7839 1704.5)" width="100%" height="100%" xlink:href="#g944"/>
 <use id="brightnessOfTheLamp_X" transform="rotate(49.2 -91.818 368.12)" width="100%" height="100%" xlink:href="#g2501"/>
 <use id="brightnessOfTheLamp_M" transform="rotate(45.53 21.435 278.06)" width="100%" height="100%" xlink:href="#g970"/>
 <path d="m11.8 167c-7.88-48.9 45.1-48.7 77.3-41.2 50.601 7.1413 100.62-11.675 150.91-6.3642 2.2574 0.52614 4.4372-0.53148 6.3296-1.2815 13.095-5.2108 25.383-15.16 29.356-28.884 2.7-11.5-8.59-20.1-18.8-21.7-26.6-7.11-54.5-6.43-81.7-9.38-36.4 1.11-72.4 10.2-109 7.45-13.3 0.193-30.1 4.2-39.9-7.31-3.67-18.6 3.44-30.7 13.4-36.2 10.2-5.47 26.9-7.12 37.6-7.17 26 2.56 46.3 0.399 71.7-4.92 26.2 8.81 46.4 8.45 63.7 6.82 11.999-1.1283 9.124 0.08243 16.469 0.98191 0.22992 0.02815 2.9465 4.83e-4 6.8033 0.28725 9.3077 0.69205 16.819 1.3888 18.402 1.2896" fill="none" stroke="#646400" stroke-width=".53056"/>
 <use id="brightnessOfTheLamp_R" transform="translate(131.53 117.04)" width="100%" height="100%" xlink:href="#g2501"/>
 <g id="g1537" transform="rotate(-.323 -25.2 174)">
  <g transform="rotate(-31.8,-7.5,8.88)">
   <path d="m-46.1 138c-0.342-0.068-0.518-0.426-0.593-0.75-0.577-1.62-1.59-4.83 0.773-5.4 2.78 0.802 1.14 4.1 0.632 5.73-0.129 0.327-0.484 0.519-0.812 0.424z" fill="#0f0" fill-opacity=".098" stroke="#000" stroke-width=".0529"/>
   <path id="rect1472" d="m-45.9 129a1.16 0.41 0 0 0-1.14 0.39h-0.0014v2.84h0.615a0.546 0.546 0 0 1 0.541-0.47 0.546 0.546 0 0 1 0.541 0.47h0.62v-2.84h-0.0014a1.16 0.41 0 0 0-1.16-0.39 1.16 0.41 0 0 0-0.0126 0z" fill="#646400" stroke="#000" stroke-width=".0529"/>
  </g>
 </g>
 <g id="g1547" transform="translate(106,-6.71)">
  <path d="m-52.4 138c-0.342-0.068-0.518-0.426-0.593-0.75-0.577-1.62-1.59-4.83 0.773-5.4 2.78 0.802 1.14 4.1 0.632 5.73-0.129 0.327-0.484 0.519-0.812 0.424z" fill="#f0f" fill-opacity=".098" stroke="#000" stroke-width=".0529"/>
  <use transform="translate(-6.28)" width="100%" height="100%" xlink:href="#rect1472"/>
 </g>
 <g id="g1563">
  <path d="m80.9 133c-0.288-0.196-0.309-0.595-0.253-0.922 0.104-1.72 0.428-5.06 2.83-4.67 2.24 1.83-0.559 4.22-1.66 5.52-0.246 0.251-0.648 0.288-0.913 0.0723z" fill="#0ff" fill-opacity=".098" stroke="#000" stroke-width=".0529"/>
  <use transform="rotate(23,29.4,447)" width="100%" height="100%" xlink:href="#rect1472"/>
 </g>
 <g id="g1551" transform="translate(172,-1.62)">
  <path d="m-66.1 138c-0.342-0.068-0.518-0.426-0.593-0.75-0.577-1.62-1.59-4.83 0.773-5.4 2.78 0.802 1.14 4.1 0.632 5.73-0.129 0.327-0.484 0.519-0.812 0.424z" fill="#f00" fill-opacity=".098" stroke="#000" stroke-width=".0529"/>
  <use transform="translate(-20 .0472)" width="100%" height="100%" xlink:href="#rect1472"/>
 </g>
 <g id="g1555" transform="rotate(-27.9,24.7,-284)">
  <path d="m-72.5 138c-0.342-0.068-0.518-0.426-0.593-0.75-0.577-1.62-1.59-4.83 0.773-5.4 2.78 0.802 1.14 4.1 0.632 5.73-0.129 0.327-0.484 0.519-0.812 0.424z" fill="#ff0" fill-opacity=".098" stroke="#000" stroke-width=".0529"/>
  <use transform="translate(-26.4 .425)" width="100%" height="100%" xlink:href="#rect1472"/>
 </g>
 <use transform="rotate(47.8 102 288)" width="100%" height="100%" xlink:href="#g1537"/>
 <use id="brightnessOfTheLamp_W" transform="rotate(32.7 -110.62 505.26)" width="100%" height="100%" xlink:href="#g1108"/>
 <use transform="translate(142,-2.41)" width="100%" height="100%" xlink:href="#g1547"/>
 <use id="brightnessOfTheLamp_Y" transform="rotate(37.5 -28.81 593.79)" width="100%" height="100%" xlink:href="#g944"/>
 <use transform="rotate(-18.9,139,-316)" width="100%" height="100%" xlink:href="#g1563"/>
 <use id="brightnessOfTheLamp_Z" transform="rotate(2.49 -1109 7497.7)" width="100%" height="100%" xlink:href="#g970"/>
 <use id="brightnessOfTheLamp_Q" transform="rotate(65.6 99.122 373.52)" width="100%" height="100%" xlink:href="#g996"/>
 <use transform="rotate(-29.9 152.85 -165.34)" width="100%" height="100%" xlink:href="#g1551"/>
 <use transform="rotate(60.8,245,203)" width="100%" height="100%" xlink:href="#g1555"/>
 <use transform="rotate(34.3 231 408)" width="100%" height="100%" xlink:href="#g1537"/>
 <use transform="rotate(-46.3,41.2,19)" width="100%" height="100%" xlink:href="#g1563"/>
 <use transform="rotate(12.8 394.98 147.21)" width="100%" height="100%" xlink:href="#g1551"/>
 <use id="brightnessOfTheLamp_L" transform="rotate(25.4 68.715 525.84)" width="100%" height="100%" xlink:href="#g996"/>
 <use transform="rotate(21.6,268,-29.4)" width="100%" height="100%" xlink:href="#g1555"/>
 <use id="brightnessOfTheLamp_K" transform="rotate(35 -112.53 294.24)" width="100%" height="100%" xlink:href="#g2501"/>
 <use id="brightnessOfTheLamp_J" transform="rotate(68.4 -49.027 102.52)" width="100%" height="100%" xlink:href="#g1108"/>
 <use transform="rotate(34.3 141 145)" width="100%" height="100%" xlink:href="#g1537"/>
 <use id="brightnessOfTheLamp_O" transform="rotate(53.9 19.275 279.75)" width="100%" height="100%" xlink:href="#g1108"/>
 <use transform="rotate(22,282,430)" width="100%" height="100%" xlink:href="#g1547"/>
 <use transform="rotate(35.5,139,49.8)" width="100%" height="100%" xlink:href="#g1547"/>
 <use id="brightnessOfTheLamp_A" transform="rotate(-13.6 -175.06 -569.74)" width="100%" height="100%" xlink:href="#g944"/>
 <use transform="rotate(-70.3,-10.5,112)" width="100%" height="100%" xlink:href="#g1563"/>
 <use transform="rotate(-33,-103,144)" width="100%" height="100%" xlink:href="#g1551"/>
 <use transform="rotate(21.6,404,-22.9)" width="100%" height="100%" xlink:href="#g1555"/>
 <use transform="rotate(34.3 260 233)" width="100%" height="100%" xlink:href="#g1537"/>
 <use id="brightnessOfTheLamp_E" transform="rotate(35.2 51.867 344.62)" width="100%" height="100%" xlink:href="#g1108"/>
 <use id="brightnessOfTheLamp_F" transform="rotate(42.4 88.912 415.17)" width="100%" height="100%" xlink:href="#g944"/>
 <use transform="rotate(1.57,4178,3551)" width="100%" height="100%" xlink:href="#g1547"/>
 <use transform="rotate(-13,-343,-350)" width="100%" height="100%" xlink:href="#g1563"/>
 <use id="brightnessOfTheLamp_G" transform="rotate(45.8 123.61 365.25)" width="100%" height="100%" xlink:href="#g970"/>
 <use transform="rotate(12.8,649,545)" width="100%" height="100%" xlink:href="#g1551"/>
 <use id="brightnessOfTheLamp_H" transform="rotate(-7.82 -569.26 -2469.6)" width="100%" height="100%" xlink:href="#g996"/>
 <use id="brightnessOfTheLamp_I" transform="rotate(-41.01 80.223 -468.68)" width="100%" height="100%" xlink:href="#g2501"/>
 <use transform="rotate(-12.1,-332,-395)" width="100%" height="100%" xlink:href="#g1555"/>
 <g id="configLamps" class="ConfigLamp" opacity=".987" stroke-width="0">
  <rect id="configLamp" x="4.5875" y="159.84" width="13.871" height="20.807" fill="#646400" opacity="1"/>
  <circle cx="11.465" cy="170.19" r="6.0483" fill="#4c4c00" opacity="1"/>
  <circle cx="11.465" cy="170.19" r="4.9433" fill="#8e8e00" opacity="1"/>
 </g>
 <rect x="70.089" y="162.2" width="17.439" height="25.536" fill="#e6e6e6" stroke="#000" stroke-width=".26528"/>
 <path d="m11.425 180.37c8.4075 5.4299 20.334 9.2103 28.87 2.4875 10.824-7.9217 24.731-7.2193 37.398-6.3113" fill="#0f0" fill-opacity=".019608" stroke="#606b00" stroke-width=".53056"/>
 <circle cx="79.076" cy="176.47" r="4.6375" fill="#ccc" stroke-width="0"/>
 <circle cx="78.181" cy="175.66" r="4.6375" fill="#646400" stroke="#606b00" stroke-width=".53056"/>
 <use transform="rotate(-41.303 -9.2908 -231.87)" width="100%" height="100%" xlink:href="#g1537"/>
</svg>
