<?xml version="1.0" encoding="UTF-8"?>
<svg width="270pt" height="340pt" version="1.1" xmlns="http://www.w3.org/2000/svg" xmlns:cc="http://creativecommons.org/ns#" xmlns:dc="http://purl.org/dc/elements/1.1/" xmlns:rdf="http://www.w3.org/1999/02/22-rdf-syntax-ns#">
 <metadata>
  <rdf:RDF>
   <cc:Work rdf:about="">
    <dc:title/>
    <dc:description/>
    <dc:subject>
     <rdf:Bag>
      <rdf:li>holiday</rdf:li>
      <rdf:li/>
      <rdf:li>recreation</rdf:li>
      <rdf:li>christmas</rdf:li>
     </rdf:Bag>
    </dc:subject>
    <dc:publisher>
     <cc:Agent rdf:about="http://www.openclipart.org">
      <dc:title>Nicu Buculei</dc:title>
     </cc:Agent>
    </dc:publisher>
    <dc:creator>
     <cc:Agent>
      <dc:title>Nicu Buculei</dc:title>
     </cc:Agent>
    </dc:creator>
    <dc:rights>
     <cc:Agent>
      <dc:title>Nicu Buculei</dc:title>
     </cc:Agent>
    </dc:rights>
    <dc:date/>
    <dc:format>image/svg+xml</dc:format>
    <dc:type rdf:resource="http://purl.org/dc/dcmitype/StillImage"/>
    <cc:license rdf:resource="http://web.resource.org/cc/PublicDomain"/>
    <dc:language>en</dc:language>
   </cc:Work>
   <cc:License rdf:about="http://web.resource.org/cc/PublicDomain">
    <cc:permits rdf:resource="http://web.resource.org/cc/Reproduction"/>
    <cc:permits rdf:resource="http://web.resource.org/cc/Distribution"/>
    <cc:permits rdf:resource="http://web.resource.org/cc/DerivativeWorks"/>
   </cc:License>
  </rdf:RDF>
 </metadata>
 <g fill-rule="evenodd" stroke="#000" stroke-linejoin="bevel" stroke-width="3.75">
  <path d="m88.275 394.64c0.909 52.71 198.11 52.71 197.21 0.909-0.909-55.436-195.39-56.344-197.21-0.909z" fill="#623e35"/>
  <path d="m161.54 287.41-0.56227 107.24c4.9163 11.814 47.487 13.633 54.527-0.908v-107.24c-6.1837 15.449-41.599 20.902-53.965 0.909z" fill="#623e35"/>
  <path d="m180.06 145.64c-3.635 10.905-113.6 87.243-176.3 125.41 37.259 100.88 322.62 97.24 353.52 2e-3 -53.618-15.45-174.49-115.42-177.21-125.41z" fill="#009500"/>
  <path d="m179.15 78.387c-3.635 10.905-79.972 87.243-142.68 125.41 39.077 56.345 250.82 62.707 285.36-1.816-53.618-15.45-139.95-113.6-142.68-123.6z" fill="#009500"/>
  <path d="m88.399 394.64 1.253 19.084c42.712 49.983 181.73 37.385 194.45 0.125l1.158-19.209c1.818 53.618-194.13 50.892-196.86 0z" fill="#623e35"/>
  <path d="m179.15 6.5929c-3.635 10.905-40.895 82.699-103.6 120.87 37.259 44.531 178.12 48.167 212.65 0.91-53.618-15.45-106.33-111.78-109.05-121.78z" fill="#009500"/>
 </g>
 <g fill="#fff" fill-rule="evenodd">
  <path d="m178.24 20.225c-28.172 52.709-76.338 98.149-95.422 107.24 8.18 14.541 54.527 29.082 73.612 26.356-11.814-30.899-9.089-59.98 21.81-133.59z" fill-opacity=".5"/>
  <path d="m110.99 153.82c-11.814 9.997-54.526 43.622-65.432 50.892-8.179 0.909 42.713 29.081 60.889 29.081-39.987-23.628 41.804-74.52 4.543-79.973z" fill-opacity=".49804"/>
  <path d="m71.917 232.88c-14.54 9.088-38.169 26.355-62.706 39.077 5.4527 19.994 45.439 45.44 54.527 48.166-36.351-45.439 42.713-78.155 8.179-87.243z" fill-opacity=".49804"/>
  <g fill-opacity=".3">
   <path d="m164.36 348.17c0.813 12.723-1.665 37.202 0.315 47.008 13.632 6.763 22.653 5.261 33.339 4.821-13.632-5.453-24.633-15.726-33.654-51.829z"/>
   <path d="m153.51 358.26c-20.662 2.755-67.151 14.807-60.953 39.601 6.199 22.728 51.999 27.205 64.741 30.649-6.199-7.232-54.41-40.636-3.788-70.25z"/>
   <path d="m92.218 409.91c2.411 1.033 11.709 13.775 47.523 28.927-15.153-4.133-45.457-16.53-47.523-28.927z"/>
  </g>
 </g>
 <g fill="#001" fill-rule="evenodd">
  <path d="m246.49 436.43c14.119-6.199 31.337-11.02 34.436-22.039 5.166-10.331-1.377 3.787-34.436 22.039z" fill-opacity=".25"/>
  <g fill-opacity=".24706">
   <path d="m218.94 359.29c38.569 0 96.077 33.747 39.946 60.952 34.781-39.946-39.946-59.919-39.946-60.952z"/>
   <path d="m190.71 347.93s20.317-2.755 21.695-0.345c1.377 2.411 0.344 21.351-0.344 26.172-1.033-9.298 1.377-23.072-21.351-25.827z"/>
   <path d="m318.98 309.95c13.262-5.21 30.787-26.525 33.63-35.525-3.316-3.789-35.999-17.052-43.577-23.683 5.684 9.473 31.735 28.894 9.947 59.208z"/>
   <path d="m283.46 227.53c18.472-7.105 29.84-16.579 32.209-22.736-9-3.789-29.367-17.052-39.314-22.736 7.579 8.052 23.21 21.315 7.105 45.472z"/>
   <path d="m236.09 97.746c7.579 10.894 41.682 31.734 45.472 32.682-4.737 7.579-28.42 19.894-37.42 20.841-4.736-0.473 23.683-16.578-8.052-53.523z"/>
  </g>
 </g>
 <g transform="translate(-318.13 151.36)" fill-rule="evenodd">
  <path d="m424.69 52.534c20.766-0.6699 20.766 29.474 1.34 29.474-24.785 0.6698-21.436-28.804-1.34-29.474z" fill="#f00" stroke="#000" stroke-width="3.75"/>
  <path d="m425.36 55.214c-2.01-2.0096-23.445 8.7081-9.378 20.096 8.709-0.6699 11.388-18.086 9.378-20.096z" fill="#fff" fill-opacity=".7"/>
 </g>
 <g transform="translate(-115.83 225.71)" fill-rule="evenodd">
  <path d="m424.69 52.534c20.766-0.6699 20.766 29.474 1.34 29.474-24.785 0.6698-21.436-28.804-1.34-29.474z" fill="#f00" stroke="#000" stroke-width="3.75"/>
  <path d="m425.36 55.214c-2.01-2.0096-23.445 8.7081-9.378 20.096 8.709-0.6699 11.388-18.086 9.378-20.096z" fill="#fff" fill-opacity=".7"/>
 </g>
 <g transform="translate(-295.36 253.18)" fill-rule="evenodd">
  <path d="m424.69 52.534c20.766-0.6699 20.766 29.474 1.34 29.474-24.785 0.6698-21.436-28.804-1.34-29.474z" fill="#f00" stroke="#000" stroke-width="3.75"/>
  <path d="m425.36 55.214c-2.01-2.0096-23.445 8.7081-9.378 20.096 8.709-0.6699 11.388-18.086 9.378-20.096z" fill="#fff" fill-opacity=".7"/>
 </g>
 <g transform="translate(-186.84 65.617)" fill-rule="evenodd">
  <path d="m424.69 52.534c20.766-0.6699 20.766 29.474 1.34 29.474-24.785 0.6698-21.436-28.804-1.34-29.474z" fill="#f00" stroke="#000" stroke-width="3.75"/>
  <path d="m425.36 55.214c-2.01-2.0096-23.445 8.7081-9.378 20.096 8.709-0.6699 11.388-18.086 9.378-20.096z" fill="#fff" fill-opacity=".7"/>
 </g>
 <g transform="translate(-305.4 85.043)" fill-rule="evenodd">
  <path d="m424.69 52.534c20.766-0.6699 20.766 29.474 1.34 29.474-24.785 0.6698-21.436-28.804-1.34-29.474z" fill="#f0f" stroke="#000" stroke-width="3.75"/>
  <path d="m425.36 55.214c-2.01-2.0096-23.445 8.7081-9.378 20.096 8.709-0.6699 11.388-18.086 9.378-20.096z" fill="#fff" fill-opacity=".7" stroke-width="1pt"/>
 </g>
 <g transform="translate(-154.69 106.48)" fill-rule="evenodd">
  <path d="m424.69 52.534c20.766-0.6699 20.766 29.474 1.34 29.474-24.785 0.6698-21.436-28.804-1.34-29.474z" fill="#f0f" stroke="#000" stroke-width="3.75"/>
  <path d="m425.36 55.214c-2.01-2.0096-23.445 8.7081-9.378 20.096 8.709-0.6699 11.388-18.086 9.378-20.096z" fill="#fff" fill-opacity=".7" stroke-width="1pt"/>
 </g>
 <g transform="translate(-212.96 218.35)" fill-rule="evenodd">
  <path d="m424.69 52.534c20.766-0.6699 20.766 29.474 1.34 29.474-24.785 0.6698-21.436-28.804-1.34-29.474z" fill="#f0f" stroke="#000" stroke-width="3.75"/>
  <path d="m425.36 55.214c-2.01-2.0096-23.445 8.7081-9.378 20.096 8.709-0.6699 11.388-18.086 9.378-20.096z" fill="#fff" fill-opacity=".7" stroke-width="1pt"/>
 </g>
 <g transform="translate(-227.7 42.172)" fill-rule="evenodd">
  <path d="m424.69 52.534c20.766-0.6699 20.766 29.474 1.34 29.474-24.785 0.6698-21.436-28.804-1.34-29.474z" fill="#00f" stroke="#000" stroke-width="3.75"/>
  <path d="m425.36 55.214c-2.01-2.0096-23.445 8.7081-9.378 20.096 8.709-0.6699 11.388-18.086 9.378-20.096z" fill="#fff" fill-opacity=".7" stroke-width="1pt"/>
 </g>
 <g transform="translate(-369.71 194.23)" fill-rule="evenodd">
  <path d="m424.69 52.534c20.766-0.6699 20.766 29.474 1.34 29.474-24.785 0.6698-21.436-28.804-1.34-29.474z" fill="#00f" stroke="#000" stroke-width="3.75"/>
  <path d="m425.36 55.214c-2.01-2.0096-23.445 8.7081-9.378 20.096 8.709-0.6699 11.388-18.086 9.378-20.096z" fill="#fff" fill-opacity=".7" stroke-width="1pt"/>
 </g>
 <g transform="translate(-178.13 167.44)" fill-rule="evenodd">
  <path d="m424.69 52.534c20.766-0.6699 20.766 29.474 1.34 29.474-24.785 0.6698-21.436-28.804-1.34-29.474z" fill="#00f" stroke="#000" stroke-width="3.75"/>
  <path d="m425.36 55.214c-2.01-2.0096-23.445 8.7081-9.378 20.096 8.709-0.6699 11.388-18.086 9.378-20.096z" fill="#fff" fill-opacity=".7" stroke-width="1pt"/>
 </g>
 <g transform="translate(-261.86 93.751)" fill-rule="evenodd">
  <path d="m424.69 52.534c20.766-0.6699 20.766 29.474 1.34 29.474-24.785 0.6698-21.436-28.804-1.34-29.474z" fill="#0ff" stroke="#000" stroke-width="3.75"/>
  <path d="m425.36 55.214c-2.01-2.0096-23.445 8.7081-9.378 20.096 8.709-0.6699 11.388-18.086 9.378-20.096z" fill="#fff" fill-opacity=".7" stroke-width="1pt"/>
 </g>
 <g transform="translate(-170.09 261.22)" fill-rule="evenodd">
  <path d="m424.69 52.534c20.766-0.6699 20.766 29.474 1.34 29.474-24.785 0.6698-21.436-28.804-1.34-29.474z" fill="#0ff" stroke="#000" stroke-width="3.75"/>
  <path d="m425.36 55.214c-2.01-2.0096-23.445 8.7081-9.378 20.096 8.709-0.6699 11.388-18.086 9.378-20.096z" fill="#fff" fill-opacity=".7" stroke-width="1pt"/>
 </g>
 <g transform="translate(-362.34 249.83)" fill-rule="evenodd">
  <path d="m424.69 52.534c20.766-0.6699 20.766 29.474 1.34 29.474-24.785 0.6698-21.436-28.804-1.34-29.474z" fill="#0f0" stroke="#000" stroke-width="3.75"/>
  <path d="m425.36 55.214c-2.01-2.0096-23.445 8.7081-9.378 20.096 8.709-0.6699 11.388-18.086 9.378-20.096z" fill="#fff" fill-opacity=".7" stroke-width="1pt"/>
 </g>
 <g transform="translate(-272.58 176.81)" fill-rule="evenodd">
  <path d="m424.69 52.534c20.766-0.6699 20.766 29.474 1.34 29.474-24.785 0.6698-21.436-28.804-1.34-29.474z" fill="#0f0" stroke="#000" stroke-width="3.75"/>
  <path d="m425.36 55.214c-2.01-2.0096-23.445 8.7081-9.378 20.096 8.709-0.6699 11.388-18.086 9.378-20.096z" fill="#fff" fill-opacity=".7" stroke-width="1pt"/>
 </g>
 <g transform="translate(-150 196.24)" fill-rule="evenodd">
  <path d="m424.69 52.534c20.766-0.6699 20.766 29.474 1.34 29.474-24.785 0.6698-21.436-28.804-1.34-29.474z" fill="#ff0" stroke="#000" stroke-width="3.75"/>
  <path d="m425.36 55.214c-2.01-2.0096-23.445 8.7081-9.378 20.096 8.709-0.6699 11.388-18.086 9.378-20.096z" fill="#fff" fill-opacity=".7" stroke-width="1pt"/>
 </g>
 <g transform="translate(-214.97 127.91)" fill-rule="evenodd">
  <path d="m424.69 52.534c20.766-0.6699 20.766 29.474 1.34 29.474-24.785 0.6698-21.436-28.804-1.34-29.474z" fill="#ff0" stroke="#000" stroke-width="3.75"/>
  <path d="m425.36 55.214c-2.01-2.0096-23.445 8.7081-9.378 20.096 8.709-0.6699 11.388-18.086 9.378-20.096z" fill="#fff" fill-opacity=".7" stroke-width="1pt"/>
 </g>
 <g transform="translate(-300.72 209.64)" fill-rule="evenodd">
  <path d="m424.69 52.534c20.766-0.6699 20.766 29.474 1.34 29.474-24.785 0.6698-21.436-28.804-1.34-29.474z" fill="#ff0" stroke="#000" stroke-width="3.75"/>
  <path d="m425.36 55.214c-2.01-2.0096-23.445 8.7081-9.378 20.096 8.709-0.6699 11.388-18.086 9.378-20.096z" fill="#fff" fill-opacity=".7" stroke-width="1pt"/>
 </g>
 <g transform="translate(-271.91 46.861)" fill-rule="evenodd">
  <path d="m424.69 52.534c20.766-0.6699 20.766 29.474 1.34 29.474-24.785 0.6698-21.436-28.804-1.34-29.474z" fill="#ff9300" stroke="#000" stroke-width="3.75"/>
  <path d="m425.36 55.214c-2.01-2.0096-23.445 8.7081-9.378 20.096 8.709-0.6699 11.388-18.086 9.378-20.096z" fill="#fff" fill-opacity=".7" stroke-width="1pt"/>
 </g>
 <g transform="translate(-227.03 269.25)" fill-rule="evenodd">
  <path d="m424.69 52.534c20.766-0.6699 20.766 29.474 1.34 29.474-24.785 0.6698-21.436-28.804-1.34-29.474z" fill="#ff9300" stroke="#000" stroke-width="3.75"/>
  <path d="m425.36 55.214c-2.01-2.0096-23.445 8.7081-9.378 20.096 8.709-0.6699 11.388-18.086 9.378-20.096z" fill="#fff" fill-opacity=".7" stroke-width="1pt"/>
 </g>
 <g transform="translate(-221.67 170.12)" fill-rule="evenodd">
  <path d="m424.69 52.534c20.766-0.6699 20.766 29.474 1.34 29.474-24.785 0.6698-21.436-28.804-1.34-29.474z" fill="#ff9300" stroke="#000" stroke-width="3.75"/>
  <path d="m425.36 55.214c-2.01-2.0096-23.445 8.7081-9.378 20.096 8.709-0.6699 11.388-18.086 9.378-20.096z" fill="#fff" fill-opacity=".7" stroke-width="1pt"/>
 </g>
 <g transform="translate(-208.94 6.8851)" fill-rule="evenodd">
  <polygon transform="rotate(-6.098 401.65 43.461)" d="m 418.66165,76.649324 -19.13006,-20.145664 -22.67253,16.055019 13.24815,-24.419123 -22.27542,-16.60158 27.31787,5.053817 8.90555,-26.31536 3.63522,27.542553 27.77936,0.337793 -25.07118,11.968418 z" points="418.66 76.649 399.53 56.504 376.86 72.559 390.11 48.14 367.83 31.538 395.15 36.592 404.06 10.276 407.69 37.819 435.47 38.157 410.4 50.125" fill="#f00" stroke="#000" stroke-width="3.75"/>
  <path d="m388.53 62.81c13.258-22.097-7.736-21.035-6.74-23.459 17.347 5.0892 17.23-3.8051 18.998-15.337 2.651 16.31 5.918 19.751-12.258 38.796z" fill="#fff" fill-opacity=".5"/>
 </g>
 <g transform="translate(-285.08 6.814)" fill-rule="evenodd">
  <path d="m424.69 52.534c20.766-0.6699 20.766 29.474 1.34 29.474-24.785 0.6698-21.436-28.804-1.34-29.474z" fill="#0f0" stroke="#000" stroke-width="3.75"/>
  <path d="m425.36 55.214c-2.01-2.0096-23.445 8.7081-9.378 20.096 8.709-0.6699 11.388-18.086 9.378-20.096z" fill="#fff" fill-opacity=".7" stroke-width="1pt"/>
 </g>
</svg>
