<?xml version="1.0" encoding="UTF-8"?>
<svg width="512" height="512" version="1.1" viewBox="0 0 135.47 135.47" xmlns="http://www.w3.org/2000/svg" xmlns:cc="http://creativecommons.org/ns#" xmlns:dc="http://purl.org/dc/elements/1.1/" xmlns:rdf="http://www.w3.org/1999/02/22-rdf-syntax-ns#">
 <defs>
  <filter id="filter1575" x="-.108" y="-.108" width="1.216" height="1.216" color-interpolation-filters="sRGB">
   <feGaussianBlur stdDeviation="4.5222003"/>
  </filter>
 </defs>
 <metadata>
  <rdf:RDF>
   <cc:Work rdf:about="">
    <dc:format>image/svg+xml</dc:format>
    <dc:type rdf:resource="http://purl.org/dc/dcmitype/StillImage"/>
    <dc:title/>
   </cc:Work>
  </rdf:RDF>
 </metadata>
 <circle id="brightnessOfTheLamp" cx="70.943" cy="69.515" r="50.247" fill="#ff0" fill-opacity=".32" filter="url(#filter1575)" stroke-width=".26458"/>
 <path d="m63.685 115.37c-0.18113-0.29301-0.05176-0.86716 0.28756-1.2759 0.47271-0.56956 1.9495-0.74319 6.3215-0.74319 5.7254 0 7.137 0.39657 6.5799 1.8485-0.33566 0.87471-12.655 1.0341-13.189 0.17064zm-1.9307-3.8786c-0.19371-0.19368-0.35216-0.7732-0.35216-1.2878 0-0.87181 0.61198-0.93567 8.967-0.93567h8.9669l-0.163 1.1483c-0.16082 1.1315-0.28686 1.1504-8.6148 1.2878-4.6484 0.0767-8.6102-0.0191-8.8038-0.21267zm-0.47754-4.9029c-0.64692-1.7591 0.08875-1.9139 9.0994-1.9139h8.8889v2.5518h-8.8768c-6.6361 0-8.9361-0.16104-9.1115-0.63796zm-1.0708-5.0437c-1.3993-0.81337-2.3764-3.6187-2.3764-6.8223 0-3.6021-0.763-5.3953-4.3726-10.276-3.5802-4.8411-5.2285-8.358-5.9456-12.686-1.8224-10.998 5.5982-22.1 16.706-24.993 13.331-3.4722 26.726 4.9952 28.928 18.286 1.0638 6.4199-0.57983 11.916-5.6621 18.932-4.0138 5.5413-4.6452 6.9095-4.6485 10.074-0.0016 1.4876-0.24014 3.5592-0.53022 4.6036-0.90641 3.2637-1.5946 3.462-11.957 3.4445-5.5896-9e-3 -9.57-0.2302-10.142-0.56249zm18.94-2.6118c0.28389-0.35087 0.68182-2.3604 0.88426-4.4657 0.46644-4.8506 1.1135-6.3824 4.8947-11.587 3.6448-5.0166 4.8271-7.5255 5.4847-11.638 2.0727-12.964-10.019-24.595-23.22-22.333-11.555 1.9792-19.045 12.308-16.785 23.146 0.87381 4.1909 1.6118 5.6938 5.3668 10.929 4.0256 5.6126 4.2128 6.0497 4.6516 10.864 0.21281 2.3338 0.6631 4.5764 1.0008 4.9833 0.83023 1.0004 16.921 1.0929 17.722 0.10196zm6.0431-29.564c-2.2504-7.7032-6.5992-11.611-14.103-12.671-3.7565-0.53097-4.6612-1.1567-3.4392-2.3787 0.73268-0.73268 1.2779-0.76998 4.1932-0.2869 4.4504 0.73746 8.2245 2.5399 10.854 5.1835 3.8429 3.8641 5.9773 10.206 3.5875 10.659-0.49208 0.09332-0.9835-0.13438-1.0921-0.506z" stroke-width=".51037"/>
</svg>
